<svg xmlns="http://www.w3.org/2000/svg" width="127" height="46"><g fill="#0E7C97"><path fill-rule="evenodd" clip-rule="evenodd" d="M125.689 38.366c0 3.285-2.664 5.95-5.949 5.95h-112.872c-3.286 0-5.949-2.665-5.949-5.95v-31.067c0-3.286 2.663-5.95 5.949-5.95h112.872c3.285 0 5.949 2.664 5.949 5.95v31.067z"/><path d="M119.74 44.759h-112.872c-3.526 0-6.393-2.868-6.393-6.393v-31.067c0-3.526 2.867-6.395 6.393-6.395h112.872c3.526 0 6.395 2.869 6.395 6.395v31.067c0 3.525-2.868 6.393-6.395 6.393zm-112.872-42.966c-3.036 0-5.505 2.47-5.505 5.505v31.067c0 3.036 2.469 5.504 5.505 5.504h112.872c3.036 0 5.506-2.468 5.506-5.504v-31.066c0-3.036-2.47-5.505-5.506-5.505h-112.872z"/></g><path fill-rule="evenodd" clip-rule="evenodd" fill="#fff" d="M44.654 1.349h-37.786c-3.286 0-5.949 2.664-5.949 5.95v31.067c0 3.285 2.663 5.95 5.949 5.95h37.786v-42.967z"/><path fill-rule="evenodd" clip-rule="evenodd" fill="#0E7C97" d="M21.653 14.707l-1.858 2.56c-.932 1.283-.644 3.556.629 4.475l3.445 2.486c.591.427.638.852.357 1.303l.5.371 1.744-2.417c1.078-1.491.984-3.524-.615-4.688l-3.474-2.53c-.416-.303-.458-.726-.229-1.201l-.499-.359z"/><path fill-rule="evenodd" clip-rule="evenodd" fill="#0E7C97" d="M24.634 3.394l-2.892 4.001c-1.357 1.877-.864 5.082.99 6.441l4.756 3.491c.964.708 1.089 2.509.388 3.433l.404.303 3.28-4.616c1.474-2.072 1.387-5.135-.925-6.814l-5.087-3.695c-.711-.517-1.068-1.396-.475-2.234l-.439-.31z"/><path fill-rule="evenodd" clip-rule="evenodd" fill="#0E7C97" d="M17.011 28.487h3.833l.684 2.322h6.264l.685-2.322h3.833l-.501-1.712h-14.294l-.504 1.712z"/><path fill-rule="evenodd" clip-rule="evenodd" fill="#006696" d="M36.809 40.409l-.014-.093-.047-.073-.087-.064-.135-.056-.12-.048-.07-.044-.033-.048-.009-.054.012-.052.033-.044.06-.033.087-.01.126.022.107.066.07-.083-.131-.077-.167-.024-.124.015-.097.05-.062.074-.023.104.015.091.048.071.086.058.134.057.111.047.072.044.038.052.012.059-.057.12-.154.044-.14-.031-.12-.083-.072.077.143.095.185.038.137-.021.101-.054.064-.085.021-.107z"/><path fill-rule="evenodd" clip-rule="evenodd" fill="#006696" d="M37.823 40.661v-.951h-.119l-.234.568-.018.046-.02.052-.02.048-.011.04-.013-.038-.018-.047-.021-.055-.019-.046-.23-.568h-.122v.951h.105v-.746l.009.033.015.04.016.043.017.042.257.61.261-.61.016-.042.019-.043.013-.04.011-.033v.746h.106z"/><path fill-rule="evenodd" clip-rule="evenodd" fill="#0E7C97" d="M20.306 38.023c-.163-1.105-.608-1.369-1.499-1.764.673-.393 1.087-.975 1.087-1.768 0-1.587-1.301-2.233-2.72-2.233h-3.964v8.427h3.927c1.677.001 3.454-.732 3.169-2.662zm-5.303-4.154h2.06c1.288 0 1.333 1.797.081 1.797h-2.14v-1.797zm2.297 5.226h-2.297v-1.923h2.297c1.689 0 1.587 1.923 0 1.923z"/><path fill-rule="evenodd" clip-rule="evenodd" fill="#0E7C97" d="M28.177 38.023c-.164-1.105-.609-1.369-1.499-1.764.672-.393 1.086-.975 1.086-1.768 0-1.587-1.3-2.233-2.719-2.233h-3.964v8.427h3.926c1.678.001 3.455-.732 3.17-2.662zm-5.302-4.154h2.06c1.286 0 1.333 1.797.081 1.797h-2.141v-1.797zm2.296 5.226h-2.296v-1.923h2.296c1.688 0 1.587 1.923 0 1.923z"/><path fill-rule="evenodd" clip-rule="evenodd" fill="#0E7C97" d="M36.048 38.023c-.164-1.105-.609-1.369-1.5-1.764.674-.393 1.087-.975 1.087-1.768 0-1.587-1.3-2.233-2.719-2.233h-3.964v8.427h3.927c1.677.001 3.454-.732 3.169-2.662zm-5.303-4.154h2.06c1.288 0 1.333 1.797.082 1.797h-2.141v-1.797zm2.296 5.226h-2.296v-1.923h2.296c1.69 0 1.587 1.923 0 1.923z"/><g fill-rule="evenodd" clip-rule="evenodd" fill="#fff"><path d="M64.201 17.887c-.479-.551-1.233-1.058-1.943-1.251-.31-.084-.654-.126-1.032-.126-.534 0-1.022.096-1.462.291-.44.195-.82.466-1.136.815-.318.348-.565.766-.744 1.255-.177.488-.266 1.024-.266 1.613 0 .609.085 1.158.255 1.645.169.488.411.905.725 1.25.313.345.685.611 1.12.798.432.188.916.279 1.45.279.982 0 2.684-.537 3.169-1.494l-1.155-1.023c-.328.522-1.353.989-1.969.989-.301 0-.572-.062-.812-.188-.239-.124-.442-.297-.608-.516-.167-.22-.291-.48-.377-.776-.084-.297-.128-.619-.128-.963 0-.36.043-.688.128-.985.086-.298.208-.555.371-.771.163-.217.363-.386.603-.506.241-.122.511-.182.813-.182.609 0 1.472.404 1.875.935l1.123-1.089z"/><polygon points="86.436,24.336 86.436,22.827 82.248,22.827 82.248,20.967 85.618,20.967 85.618,19.47 82.248,19.47 82.248,18.138 86.261,18.138 86.261,16.63 80.623,16.63 80.623,24.336 86.436,24.336"/><path d="M93.917 18.695c-.206-.489-.487-.887-.848-1.195-.359-.309-.785-.53-1.275-.666-.491-.135-1.027-.204-1.606-.204h-2.541v7.706h2.426c.518 0 1.026-.074 1.524-.221.499-.147.943-.376 1.334-.688s.704-.712.939-1.2.354-1.069.354-1.744c.001-.705-.103-1.301-.307-1.788zm-1.515 2.752c-.101.289-.251.537-.452.743-.199.205-.458.364-.771.479-.314.113-.684.17-1.107.17h-.801v-4.71h.859c.857 0 1.476.196 1.855.588.378.393.568.982.568 1.768.002.35-.049.671-.151.962z"/><polygon points="97.42,24.336 97.42,16.63 95.795,16.63 95.795,24.336 97.42,24.336"/><polygon points="104.988,18.149 104.988,16.63 98.7,16.63 98.7,18.149 101.032,18.149 101.032,24.336 102.656,24.336 102.656,18.149 104.988,18.149"/><path d="M119.329 18.695c-.204-.489-.486-.887-.847-1.195-.36-.309-.785-.53-1.275-.666-.492-.135-1.026-.204-1.607-.204h-2.54v7.706h2.424c.519 0 1.028-.074 1.525-.221.5-.147.944-.376 1.335-.688.39-.312.703-.712.939-1.2s.354-1.069.354-1.744c0-.705-.103-1.301-.308-1.788zm-1.514 2.752c-.101.289-.251.537-.452.743-.2.205-.459.364-.771.479-.312.113-.683.17-1.108.17h-.8v-4.71h.858c.858 0 1.477.196 1.856.588.379.393.569.982.569 1.768.001.35-.05.671-.152.962z"/><polygon points="111.842,24.336 111.842,22.827 107.654,22.827 107.654,20.967 111.023,20.967 111.023,19.47 107.654,19.47 107.654,18.138 111.669,18.138 111.669,16.63 106.03,16.63 106.03,24.336 111.842,24.336"/><polygon points="98.254,34.284 98.254,32.776 94.067,32.776 94.067,30.915 97.438,30.915 97.438,29.418 94.067,29.418 94.067,28.086 98.08,28.086 98.08,26.578 92.443,26.578 92.443,34.284 98.254,34.284"/><path d="M71.699 17.887c-.479-.551-1.232-1.058-1.943-1.251-.311-.084-.654-.126-1.032-.126-.533 0-1.021.096-1.462.291-.44.195-.82.466-1.138.815-.316.348-.563.766-.742 1.255-.179.488-.267 1.024-.267 1.613 0 .609.085 1.158.255 1.645.17.488.411.905.727 1.25.312.345.686.611 1.117.798.434.188.918.279 1.452.279.981 0 2.685-.537 3.169-1.494l-1.154-1.023c-.328.522-1.354.989-1.97.989-.301 0-.57-.062-.812-.188-.239-.124-.443-.297-.608-.516-.167-.22-.293-.48-.378-.776-.086-.297-.127-.619-.127-.963 0-.36.041-.688.127-.985.085-.298.208-.555.372-.771.161-.217.362-.386.603-.506.24-.122.51-.182.813-.182.608 0 1.471.404 1.873.935l1.125-1.089zM64.745 30.741c-.211-.281-.475-.49-.791-.63.265-.153.469-.359.615-.615.147-.255.222-.55.222-.882 0-.659-.227-1.164-.679-1.513-.451-.349-1.062-.523-1.83-.523h-3.628v7.706h3.593c.422 0 .805-.054 1.153-.16.347-.105.642-.264.888-.474.244-.209.436-.469.57-.78.136-.314.203-.669.203-1.074.001-.426-.105-.776-.316-1.055zm-4.542-2.744h2.012c.347 0 .595.064.746.188.15.125.227.308.227.551 0 .212-.067.389-.198.523-.132.135-.364.203-.695.203h-2.09v-1.465zm2.954 4.553c-.186.181-.469.271-.854.271h-2.101v-1.992h2.101c.754 0 1.131.33 1.131.99.001.307-.091.552-.277.731zM72.526 30.884v-4.306h-1.582v4.329c0 .621-.146 1.111-.437 1.462-.289.354-.688.527-1.189.527-.507 0-.902-.179-1.188-.538-.287-.359-.43-.852-.43-1.475v-4.306h-1.581v4.329c0 .562.075 1.062.23 1.495.155.432.372.798.65 1.095s.614.521 1.012.675c.396.156.83.232 1.307.232 1.007 0 1.795-.305 2.36-.918s.848-1.479.848-2.601zM79.798 31.952c0-.42-.079-.765-.236-1.037-.159-.271-.365-.494-.617-.671-.253-.177-.534-.313-.848-.413-.312-.1-.626-.185-.944-.258-.315-.074-.575-.141-.778-.199-.204-.059-.366-.12-.486-.187-.12-.064-.204-.142-.253-.227-.05-.081-.075-.188-.075-.312 0-.09.021-.173.056-.254.039-.081.104-.153.193-.22.091-.066.207-.118.351-.16.143-.039.32-.061.53-.061.362 0 .688.066.978.202.291.137.563.334.819.59l1.143-1.078c-.377-.383-.797-.68-1.26-.892-.465-.214-1.005-.319-1.622-.319-.392 0-.759.052-1.103.153-.343.104-.642.252-.898.446-.256.195-.459.433-.604.709-.146.28-.22.596-.22.949 0 .38.06.7.181.957.119.256.29.468.508.638.218.169.48.308.786.418.305.109.639.205.999.286.37.081.671.158.905.232.233.071.412.148.535.231.125.081.21.166.256.257.044.092.067.2.067.324 0 .295-.111.507-.332.64-.224.133-.571.197-1.047.197-.385 0-.747-.066-1.09-.203-.343-.138-.653-.361-.933-.675l-1.143.988c.302.432.723.774 1.267 1.024.543.249 1.146.373 1.808.373.543 0 1.009-.058 1.396-.176.389-.116.712-.285.967-.501.257-.216.445-.476.565-.774.119-.298.179-.632.179-.997z"/><polygon points="82.661,34.284 82.661,26.578 81.08,26.578 81.08,34.284 82.661,34.284"/><path d="M90.713 34.284v-7.706h-1.56v3.259l.006.407.007.497.005.456.006.324c-.053-.104-.134-.236-.244-.402l-.311-.468-2.802-4.073h-1.514v7.706h1.559v-3.392l-.007-.405-.005-.484-.005-.469-.007-.324.244.403.311.465 2.905 4.206h1.412zM104.715 31.952c0-.42-.079-.765-.237-1.037-.157-.271-.364-.494-.615-.671-.253-.177-.535-.313-.849-.413-.312-.1-.627-.185-.943-.258-.316-.074-.575-.141-.779-.199s-.366-.12-.487-.187c-.118-.064-.204-.142-.253-.227-.05-.081-.073-.188-.073-.312 0-.09.019-.173.056-.254.039-.081.103-.153.192-.22.091-.066.207-.118.352-.16.142-.039.318-.061.53-.061.361 0 .688.066.978.202.29.137.562.334.819.59l1.142-1.078c-.378-.383-.797-.68-1.262-.892-.462-.214-1.003-.319-1.621-.319-.392 0-.758.052-1.102.153-.342.104-.643.252-.898.446-.255.195-.458.433-.604.709-.147.28-.221.596-.221.949 0 .38.06.7.182.957.119.256.288.468.508.638.219.169.48.308.786.418.307.109.639.205 1 .286.369.081.671.158.903.232.234.071.412.148.537.231.125.081.209.166.255.257.045.092.067.2.067.324 0 .295-.111.507-.334.64-.221.133-.57.197-1.046.197-.383 0-.746-.066-1.089-.203-.343-.138-.654-.361-.933-.675l-1.142.988c.3.432.723.774 1.266 1.024.542.249 1.145.373 1.809.373.542 0 1.008-.058 1.396-.176.388-.116.71-.285.966-.501.257-.216.444-.476.565-.774.118-.298.179-.632.179-.997zM111.513 31.952c0-.42-.08-.765-.237-1.037-.158-.271-.364-.494-.616-.671s-.536-.313-.848-.413c-.312-.1-.627-.185-.943-.258-.317-.074-.577-.141-.78-.199s-.365-.12-.486-.187c-.12-.064-.205-.142-.253-.227-.049-.081-.075-.188-.075-.312 0-.09.02-.173.058-.254.037-.081.102-.153.192-.22.09-.066.206-.118.35-.16.144-.039.319-.061.531-.061.361 0 .688.066.978.202.29.137.563.334.819.59l1.143-1.078c-.378-.383-.797-.68-1.26-.892-.464-.214-1.004-.319-1.623-.319-.393 0-.76.052-1.103.153-.342.104-.642.252-.897.446-.257.195-.458.433-.605.709-.146.28-.22.596-.22.949 0 .38.06.7.181.957.121.256.29.468.508.638.221.169.481.308.786.418.306.109.638.205 1 .286.369.081.671.158.904.232.233.071.412.148.536.231.125.081.21.166.255.257.046.092.067.2.067.324 0 .295-.111.507-.333.64s-.57.197-1.045.197c-.385 0-.748-.066-1.091-.203-.343-.138-.654-.361-.932-.675l-1.144.988c.302.432.725.774 1.268 1.024.542.249 1.145.373 1.808.373.544 0 1.008-.058 1.396-.176.388-.116.71-.285.967-.501.256-.216.445-.476.564-.774.119-.298.18-.632.18-.997zM54.259 16.63h-1.577l-3.11 7.706h1.741l.638-1.718h2.97l.638 1.718h1.787l-3.087-7.706zm-1.751 4.524l.522-1.398.238-.659.168-.54c.038.147.094.327.167.54l.238.659.523 1.398h-1.856zM77.808 21.407c.519-.19 1.096-.537 1.355-.909.259-.37.389-.845.389-1.424 0-.411-.074-.77-.22-1.074-.147-.306-.349-.56-.604-.765-.256-.206-.553-.357-.894-.457-.342-.099-.7-.148-1.079-.148h-3.782v7.706h1.625v-2.774l1.448.066 1.695 2.708h1.868l-1.801-2.929zm-1.086-1.298h-2.123v-1.981h2.123c.362 0 .647.075.852.225.206.15.309.402.309.754-.001.668-.39 1.002-1.161 1.002z"/></g></svg>