<svg xmlns="http://www.w3.org/2000/svg" width="145" height="25"><g fill="#fff"><path d="M38.642 20.124h-1.311l.213-.844h5.811l-.192.844h-1.503l-1.451 4.169h-2.963l1.396-4.169zM49.368 19.28c.134 0 .295.009.48.028.184.019.358.059.522.117.163.062.304.147.421.262s.183.262.197.446v.085c-.007.328-.057.631-.149.909l-.054.122c-.127.373-.296.664-.506.873-.209.209-.467.377-.773.503l.501 1.667h-3.23l-.618-1.677-.543 1.677h-2.997l1.716-5.013h5.033zm-2.868 2.463c.426 0 .758-.057.996-.17s.407-.315.507-.606c.063-.253.096-.549.096-.89h-1.035l-.564 1.666zM58.238 20.947l-.005 1.451-.016.914-.032.568-.042.412h-3.294v-.729h-2.369l-.575.729h-1.002l3.795-5.013h3.54v1.668zm-5.138 1.821h1.749v-2.283l-1.749 2.283zM66.32 24.293h-2.793l1.333-4.055h-1.493l-1.408 4.055h-2.91l1.716-5.013h6.355c.078 0 .156.021.234.066.078.045.147.102.208.17.061.069.11.149.149.237l.08.256-1.471 4.284zM68.634 20.446l.042-.161c.042-.145.11-.28.203-.403.092-.124.197-.229.314-.318.117-.087.246-.157.384-.208.138-.049.271-.075.399-.075h4.201l-.017.142-.026.142-.203.561h-1.589l-.032.108-.063.26-.032.303.01.172.661 1.64.016.185.016.223v.038l-.043.237-.186.352c-.075.118-.162.227-.261.32-.1.095-.206.176-.32.236-.114.064-.231.096-.352.096h-4.489v-.048l.026-.161.059-.18.133-.298.069-.155h1.695l.011-.049.064-.18.032-.228-.021-.114-.683-1.687-.017-.19-.016-.294v-.038l.015-.228zM80.16 19.28c.135 0 .294.009.479.028.185.019.358.059.522.117.163.062.303.147.421.262.117.114.183.262.197.446l-.011.048c0 .094-.023.229-.069.406l-.166.549-.105.271-.097.184c-.163.216-.309.386-.438.513-.127.126-.274.228-.442.304-.167.075-.369.135-.607.18-.238.043-.546.095-.923.151h-2.015l-.501 1.554h-2.995l1.716-5.013h5.034zm-2.869 2.463c.427 0 .758-.057.992-.17.233-.113.401-.315.5-.606l.055-.2.096-.316s.042-.235.042-.373h-1.119l-.566 1.665zM81.865 23.564c0-.223.034-.506.101-.85.068-.345.166-.699.294-1.066.106-.296.226-.587.357-.872.131-.284.275-.536.432-.757s.321-.399.495-.536c.175-.135.357-.203.549-.203h5.631c.113.069.202.137.267.203l.138.194.054.181.011.151c0 .221-.032.505-.096.848-.064.345-.16.699-.288 1.065-.105.298-.228.589-.363.873-.135.284-.28.536-.438.759-.155.221-.324.399-.506.534-.181.137-.367.204-.56.204h-5.629c-.192-.126-.314-.257-.369-.393-.053-.136-.079-.239-.079-.308v-.027zm3.177-.113h.875l.118-.2.243-.465c.094-.183.185-.382.272-.603.089-.217.162-.428.219-.629l.288-1.137-.027-.151-.025-.143h-.864l-.123.199-.234.443c-.089.178-.18.375-.271.589-.093.215-.164.424-.213.625l-.309 1.176.025.151.026.145zM96.621 19.28c.135 0 .295.009.48.028.185.019.359.059.522.117.163.062.304.147.421.262s.182.262.197.446v.085c-.008.328-.058.631-.149.909l-.054.122c-.128.373-.297.664-.506.873-.21.209-.468.377-.773.503l.5 1.667h-3.229l-.619-1.677-.543 1.677h-2.997l1.716-5.013h5.034zm-2.867 2.463c.425 0 .76-.057.996-.17.237-.113.406-.315.507-.606.063-.253.096-.549.096-.89h-1.033l-.566 1.666zM100.972 20.124h-1.312l.212-.844h5.812l-.192.844h-1.504l-1.449 4.169h-2.964l1.397-4.169zM111.293 20.947l-.006 1.451-.017.914c-.006.237-.017.427-.032.568l-.041.412h-3.295v-.729h-2.367l-.577.729h-1.001l3.796-5.013h3.54v1.668zm-5.14 1.821h1.749v-2.283l-1.749 2.283zM113.819 20.124h-1.312l.214-.844h5.812l-.191.844h-1.504l-1.45 4.169h-2.965l1.396-4.169zM117.893 24.293l.223-.842h1.377l1.118-3.327h-1.311l.213-.844h5.812l-.192.844h-1.504l-1.162 3.327h1.462l-.225.842h-5.811zM125.121 23.564c0-.223.033-.506.102-.85.066-.345.164-.699.294-1.066.105-.296.224-.587.356-.872.13-.284.274-.536.432-.757.156-.221.321-.399.495-.536.175-.135.356-.203.549-.203h5.631c.113.069.201.137.266.203l.14.194.052.181.012.151c0 .221-.032.505-.097.848-.064.345-.16.699-.287 1.065-.107.298-.229.589-.363.873-.134.284-.281.536-.437.759-.157.221-.324.399-.507.534-.182.137-.367.204-.561.204h-5.629c-.191-.126-.314-.257-.367-.393-.054-.136-.08-.239-.08-.308v-.027zm3.179-.113h.872l.118-.2.246-.465c.091-.183.182-.382.271-.603.088-.217.161-.428.218-.629l.288-1.137-.024-.151-.028-.143h-.864l-.122.199-.235.443-.271.589c-.093.215-.163.424-.214.625l-.309 1.176.025.151.029.145zM140.4 24.293h-2.794l1.332-4.055h-1.492l-1.407 4.055h-2.91l1.716-5.013h6.354c.078 0 .155.021.234.066.078.045.148.102.208.17.062.069.11.149.149.237l.08.256-1.47 4.284z"/></g><path d="M92.872.669l-1.722 5.267h-1.553l1.625-5.267h-9.181l-4.997 15.257h9.23l1.896-5.838h1.649l-1.945 5.838h9.378l4.974-15.257h-9.354zm3.692 14.143h-7.26l1.943-5.839h-3.742l-1.92 5.839h-7.138l4.259-13.03h7.113l-1.649 5.236h3.668l1.724-5.236h7.261l-4.259 13.03z" fill="none"/><path d="M111.642 7.063c-.139.331-.275.677-.405 1.038-.131.361-.246.724-.346 1.084l-.491 1.986h.099l.357-.738c.139-.289.281-.611.43-.963.147-.351.286-.712.419-1.083.131-.371.246-.737.345-1.098l.442-1.866h-.073c-.099.181-.218.417-.357.707-.14.292-.28.602-.42.933z" fill="none"/><path d="M122.474 6.07c.171-.952.258-1.75.258-2.393 0-.18-.012-.386-.038-.616-.024-.229-.097-.472-.22-.722s-.312-.517-.568-.798c-.253-.28-.609-.571-1.068-.873h-14.154c-.608 0-1.183.201-1.725.603-.541.401-1.037.923-1.487 1.564-.453.643-.866 1.374-1.244 2.196-.378.823-.714 1.665-1.01 2.528-.344 1.023-.604 2.012-.774 2.965-.173.952-.259 1.749-.259 2.392v.06c0 .161.021.353.062.572.041.221.126.462.258.723.132.26.311.537.542.826.229.292.541.567.935.828h14.228c.607 0 1.178-.195 1.712-.588.532-.39 1.028-.912 1.487-1.564.461-.651.883-1.388 1.27-2.211.385-.822.726-1.665 1.021-2.527.342-1.023.601-2.012.774-2.965zm-1.688 2.573c-.262.783-.562 1.542-.896 2.272-.339.733-.698 1.39-1.084 1.972-.387.582-.797 1.048-1.231 1.4-.435.35-.89.525-1.366.525h-13.956c-.478-.342-.776-.683-.899-1.021-.123-.342-.184-.613-.184-.814v-.06c0-.583.077-1.314.233-2.196.154-.883.397-1.806.727-2.77.262-.782.558-1.539.887-2.272.326-.731.684-1.389 1.071-1.97.384-.582.793-1.048 1.229-1.399.435-.351.889-.527 1.366-.527h13.905c.281.183.498.361.653.542.157.181.272.351.345.512.074.161.119.312.136.452l.024.39c0 .583-.078 1.314-.232 2.197-.157.883-.399 1.805-.728 2.767z" fill="none"/><path d="M71.531 9.908c.099-.381.233-.803.406-1.266l.517-1.368c.173-.452.341-.873.505-1.264.164-.392.295-.696.395-.919h5.808l.271-.677.099-.225.172-.481.369-1.113.197-1.927h-12.53c-.59 0-1.148.201-1.674.603-.525.401-1.013.923-1.464 1.564-.452.644-.862 1.375-1.231 2.197-.369.823-.693 1.665-.972 2.528-.329 1.023-.579 2.012-.75 2.965-.173.952-.259 1.749-.259 2.392v.06c0 .161.02.353.062.572.041.221.123.462.247.723.123.26.299.537.529.826.23.292.534.567.911.828h11.667c.296 0 .549-.096.763-.287.213-.188.393-.43.542-.721s.259-.606.333-.948c.073-.34.11-.652.11-.933l.074-1.535h-5.613l.516-1.594zm4.061 2.707l-.024.331c0 .182-.017.383-.049.603-.033.221-.078.421-.136.602s-.134.337-.233.466c-.098.131-.214.196-.345.196h-11.373c-.476-.342-.775-.683-.898-1.021-.124-.342-.185-.613-.185-.814v-.06c0-.583.078-1.314.234-2.196.156-.883.39-1.806.702-2.77.262-.782.553-1.539.873-2.272.321-.731.669-1.389 1.047-1.97.378-.582.779-1.048 1.207-1.399.426-.351.869-.527 1.328-.527h11.447l-.074.603-.295.933-.248.66h-5.735c-.033.041-.139.255-.32.646-.18.392-.385.872-.615 1.444-.23.573-.464 1.175-.702 1.807-.237.632-.422 1.199-.554 1.699l-.738 2.287.062.376.062.376h5.562z" fill="none"/><path d="M62.177 2.671c-.165-.371-.369-.702-.616-.993-.245-.29-.521-.532-.824-.723-.303-.19-.619-.286-.947-.286h-16.468l-4.972 15.257h9.305l3.495-10.533h1.649l-3.299 10.533h8.984l4.012-12.157c-.048-.361-.155-.727-.319-1.098zm-4.357 12.141h-6.941l3.299-10.532h-3.718l-3.496 10.532h-7.212l4.258-13.03h15.78c.197 0 .394.062.59.183.197.119.369.27.517.45.147.181.275.381.381.601.107.222.176.441.209.662l-3.667 11.134z" fill="none"/><path d="M113.87 3.98h-2.143c-.033.041-.135.215-.308.525-.172.312-.364.697-.578 1.158-.214.462-.43.969-.652 1.52-.222.553-.398 1.088-.528 1.611l-.764 3.068.062.376.062.376h2.165l.297-.511c.181-.322.382-.723.604-1.204.221-.481.443-1.009.664-1.579.221-.572.396-1.119.529-1.641l.737-2.948c0-.102-.023-.227-.074-.377-.048-.149-.073-.274-.073-.374zm-1.527 3.43c-.098.381-.221.771-.37 1.174-.146.4-.303.788-.467 1.159l-.467 1.021c-.148.312-.271.558-.37.737h-.688l.615-2.408c.099-.379.217-.771.357-1.172.138-.401.291-.782.455-1.145.163-.36.319-.686.467-.978l.37-.708h.665l-.567 2.32z" fill="none"/><path d="M141.782 1.256c-.509-.23-1.043-.386-1.599-.467-.559-.078-1.052-.12-1.478-.12h-13.119l-4.948 15.257h9.526l.664-2.256.788 2.256h10.02l-1.379-4.846c.656-.381 1.222-.867 1.697-1.458.477-.591.87-1.369 1.182-2.332l-.024.09.074-.24c.146-.462.266-.934.357-1.414.09-.482.143-.974.158-1.476v-.27c-.048-.723-.254-1.3-.614-1.73-.361-.433-.794-.764-1.305-.994zm.937 2.965c-.017.883-.139 1.675-.368 2.377l-.149.301c-.296.983-.704 1.74-1.229 2.271-.526.533-1.166.968-1.92 1.309l1.229 4.334h-7.975l-1.551-4.363-1.329 4.363h-7.387l4.211-13.03h12.455c.346 0 .742.025 1.194.075.451.051.877.156 1.28.317.401.161.751.385 1.046.676s.459.677.492 1.159v.211z" fill="none"/><path fill="#EF3E33" d="M60.897 2.415c-.148-.181-.32-.331-.517-.45-.196-.121-.394-.183-.59-.183h-15.779l-4.258 13.03h7.212l3.495-10.532h3.717l-3.299 10.532h6.941l3.668-11.135c-.033-.221-.102-.44-.209-.662-.106-.219-.233-.419-.381-.6z"/><path d="M62.448 2.596c-.181-.421-.406-.797-.677-1.129-.271-.331-.579-.603-.924-.812-.344-.211-.697-.316-1.058-.316h-16.688l-5.194 15.918h9.969l3.496-10.53h.96l-3.298 10.53h9.673l4.086-12.427c-.049-.403-.165-.814-.345-1.234zm-3.963 13.33h-8.985l3.298-10.533h-1.649l-3.495 10.533h-9.304l4.972-15.257h16.468c.328 0 .644.096.947.286.304.19.579.433.824.723.248.291.452.622.616.993.164.371.271.737.319 1.098l-4.011 12.157z"/><path fill="#EF3E33" d="M69.968 12.239l-.062-.376.738-2.287c.131-.5.316-1.067.554-1.699.239-.632.472-1.233.702-1.807.229-.572.435-1.053.615-1.443.181-.392.287-.605.32-.646h5.735l.247-.663.295-.933.074-.603h-11.446c-.459 0-.902.177-1.328.527-.428.352-.829.817-1.207 1.399-.378.581-.726 1.238-1.047 1.97-.32.733-.611 1.49-.873 2.272-.312.964-.546 1.887-.702 2.77-.156.882-.234 1.613-.234 2.196v.06c0 .201.062.473.185.814.123.339.422.68.898 1.021h11.373c.131 0 .247-.065.345-.196.099-.129.175-.285.233-.466s.103-.381.136-.602c.033-.22.049-.421.049-.603l.024-.331h-5.562l-.062-.374z"/><path d="M76.848 13.066l.099-1.895h-5.464l.345-1.144c.098-.361.221-.758.369-1.188.147-.432.303-.863.467-1.294.165-.432.324-.832.48-1.203l.382-.919h5.833l.468-1.084.1-.33.441-1.384.246-2.288h-12.874c-.624 0-1.214.206-1.771.617-.558.41-1.071.947-1.539 1.609s-.895 1.416-1.28 2.258-.726 1.704-1.021 2.588c-.344 1.043-.603 2.055-.775 3.039s-.259 1.807-.259 2.468v.06c0 .161.025.367.075.617.048.251.143.522.282.812.14.292.336.597.591.919.254.32.595.631 1.021.931h11.742c.345 0 .644-.104.898-.314.255-.211.464-.477.628-.799.164-.319.287-.665.37-1.036.08-.371.13-.718.146-1.04zm-.295-.029c0 .28-.037.593-.11.933-.074.342-.185.657-.333.948s-.328.532-.542.721c-.214.191-.467.287-.763.287h-11.668c-.377-.261-.681-.536-.911-.828-.229-.289-.406-.566-.529-.826-.124-.261-.206-.502-.247-.723-.042-.22-.062-.411-.062-.572v-.06c0-.643.086-1.439.259-2.392.172-.953.422-1.941.75-2.965.278-.863.603-1.705.972-2.528.37-.822.78-1.554 1.231-2.196.452-.642.939-1.163 1.464-1.564.526-.401 1.083-.603 1.674-.603h12.53l-.197 1.927-.369 1.113-.172.481v0l-.099.225-.271.677h-5.808l-.395.919c-.164.391-.332.812-.505 1.264l-.517 1.368c-.172.463-.307.885-.406 1.266l-.517 1.594h5.613l-.072 1.534zM92.651.338l-1.724 5.236h-.91l1.625-5.236h-9.822l-5.219 15.918h9.872l1.919-5.837h.984l-1.944 5.837h10.043l5.194-15.918h-10.018zm4.602 15.588h-9.378l1.945-5.838h-1.649l-1.896 5.838h-9.23l4.997-15.257h9.181l-1.625 5.267h1.553l1.722-5.267h9.354l-4.974 15.257z"/><polygon fill="#EF3E33" points="93.562,1.782 91.839,7.019 88.171,7.019 89.82,1.782 82.707,1.782 78.448,14.812 85.586,14.812 87.506,8.974 91.248,8.974 89.305,14.812 96.564,14.812 100.823,1.782"/><path d="M121.993 9.186c.344-1.043.606-2.056.787-3.04.18-.982.271-1.806.271-2.468 0-.199-.017-.425-.05-.676-.032-.251-.119-.522-.258-.813-.142-.29-.354-.591-.64-.903-.288-.309-.687-.627-1.194-.947h-14.228c-.642 0-1.248.206-1.822.617-.574.41-1.1.947-1.576 1.609s-.915 1.416-1.316 2.258c-.402.842-.751 1.704-1.045 2.588-.345 1.043-.604 2.055-.777 3.039-.171.984-.259 1.807-.259 2.468v.06c0 .161.025.367.076.617.049.251.143.522.283.812.138.292.339.597.602.919.262.32.608.631 1.035.931h14.325c.641 0 1.243-.206 1.809-.617.567-.408 1.093-.947 1.577-1.608.482-.662.927-1.415 1.329-2.257.402-.844.759-1.707 1.071-2.589zm-2.586 4.587c-.459.652-.955 1.175-1.487 1.564-.534.393-1.104.588-1.712.588h-14.228c-.394-.261-.705-.536-.935-.828-.231-.289-.41-.566-.542-.826-.132-.261-.217-.502-.258-.723-.042-.22-.062-.411-.062-.572v-.06c0-.643.086-1.439.259-2.392.171-.953.431-1.941.774-2.965.296-.863.632-1.705 1.01-2.528.378-.822.791-1.554 1.244-2.196.45-.642.946-1.163 1.487-1.564.542-.401 1.116-.603 1.725-.603h14.154c.459.302.815.593 1.068.873.256.281.445.548.568.798s.195.492.22.722c.026.23.038.437.038.616 0 .643-.087 1.44-.258 2.393-.173.953-.432 1.941-.776 2.965-.295.862-.636 1.705-1.021 2.527-.385.824-.807 1.56-1.268 2.211zM111.875 5.8c-.147.292-.304.617-.467.978-.164.362-.317.743-.455 1.145-.141.401-.259.793-.357 1.172l-.615 2.408h.688c.099-.18.222-.426.37-.737.146-.312.303-.65.467-1.021s.321-.759.467-1.159c.149-.402.272-.793.37-1.174l.567-2.318h-.665l-.37.706zm.616-.376l-.442 1.866c-.099.36-.214.727-.345 1.098-.133.371-.271.732-.419 1.083-.148.352-.291.674-.43.963l-.357.738h-.099l.491-1.986c.1-.36.215-.723.346-1.084.13-.361.267-.707.405-1.038.141-.331.28-.642.419-.933.14-.29.259-.526.357-.707h.074z"/><path fill="#EF3E33" d="M121.722 3.288c-.017-.141-.062-.291-.136-.452-.072-.161-.188-.331-.345-.512-.155-.181-.372-.359-.653-.542h-13.905c-.478 0-.932.177-1.366.527-.437.352-.846.817-1.229 1.399-.388.581-.745 1.238-1.071 1.97-.329.733-.625 1.49-.887 2.272-.329.964-.572 1.887-.727 2.77-.156.882-.233 1.613-.233 2.196v.06c0 .201.061.473.184.814.123.339.422.68.899 1.021h13.956c.477 0 .932-.176 1.366-.525.435-.353.845-.818 1.231-1.4.386-.582.745-1.238 1.084-1.972.335-.73.635-1.489.896-2.272.329-.962.571-1.884.728-2.768.154-.883.232-1.614.232-2.197l-.024-.389zm-8.443 4.393c-.133.521-.309 1.068-.529 1.641-.221.57-.443 1.098-.664 1.579-.222.481-.423.882-.604 1.204l-.297.511h-2.165l-.062-.376-.062-.376.764-3.068c.13-.523.307-1.059.528-1.611.223-.551.438-1.058.652-1.52.214-.461.406-.846.578-1.158.173-.311.274-.484.308-.525h2.143c0 .1.024.225.072.375.051.15.074.275.074.377l-.736 2.947z"/><path d="M143.346 2.067c-.386-.47-.844-.837-1.377-1.097-.535-.26-1.097-.432-1.688-.513-.591-.079-1.115-.12-1.575-.12h-13.341l-5.171 15.918h10.168l.491-1.624.566 1.624h10.609l-1.403-4.995c.625-.4 1.165-.896 1.625-1.488.46-.591.845-1.358 1.157-2.302l.148-.331c.13-.401.233-.848.307-1.34.075-.491.118-1.008.135-1.55v-.3c-.048-.782-.265-1.408-.651-1.882zm.356 2.183c-.016.502-.068.993-.158 1.476-.092.48-.211.952-.357 1.414l-.074.24.024-.09c-.312.963-.705 1.741-1.182 2.332-.476.591-1.041 1.077-1.697 1.458l1.379 4.846h-10.02l-.788-2.256-.664 2.256h-9.526l4.948-15.257h13.119c.426 0 .919.042 1.478.12.556.081 1.09.236 1.599.467.511.23.943.562 1.306.994.36.431.566 1.008.614 1.73v.27z"/><path fill="#EF3E33" d="M142.227 2.851c-.295-.291-.645-.515-1.046-.676-.403-.161-.829-.267-1.28-.317-.452-.05-.849-.075-1.194-.075h-12.455l-4.211 13.03h7.387l1.329-4.363 1.551 4.363h7.975l-1.229-4.334c.754-.341 1.394-.775 1.92-1.309.525-.531.934-1.288 1.229-2.271l.149-.301c.229-.702.352-1.494.368-2.377v-.211c-.034-.483-.199-.868-.493-1.159zm-6.893 3.325c-.247.763-.661 1.29-1.242 1.581-.585.29-1.409.436-2.475.436l1.403-4.333h2.561c0 .922-.083 1.695-.247 2.316z"/><path d="M16.807 14.301l.179-.042.773-.18.396-.093.638-.15.385-.091.971-.228.171-.042.838-.198.136-.033 1.574-4.902-6.061 5.959z" fill="none"/><path d="M37.724 7.977c.047-.103.069-.205.08-.307l-.011.032c-.01.092-.03.182-.069.275z" fill="none"/><path d="M15.099 15.264c2.353-.545 4.577-1.062 6.647-1.562l2.333-7.269-8.98 8.831z" fill="none"/><path d="M22.137 4.016l-12.7 12.554 5.662-1.307 8.981-8.83-2.333 7.269c8.06-1.94 13.863-3.588 15.556-5.18.167-.156.293-.314.378-.471l.112-.35.011-.032.1-.312.085-.266.095-.297.015-.046.021-.063.857-2.67.989-3.083h-14.711l-3.118 3.084z" fill="none"/><path d="M19.178 13.745l.971-.228.171-.042.838-.198.136-.033 1.574-4.902-6.06 5.959.179-.042.773-.18.396-.093.638-.15.384-.091z" fill="none"/><path d="M40.159.338h-14.713c-.197 0-.414.098-.577.26l-15.819 15.637-5.146 5.088h-.001l-2.21 2.185c-.184.182-.273.418-.232.613.042.195.206.318.429.318h4.039l.046.003h7.634c.107 0 .223-.029.333-.084 1.58-.782 3.093-1.545 4.513-2.272l-.564 1.757c-.106.329.077.597.409.597h14.098c.331 0 .685-.268.79-.597l4.26-13.2c1.446-1.283 2.156-2.325 2.167-3.18.004-.379-.136-.865-.761-1.19l1.714-5.34c.105-.329-.078-.595-.409-.595zm-22.004 13.648l-.396.093-.773.18-.179.042 6.06-5.959-1.574 4.902-.136.033-.838.198-.171.042-.971.228-.385.091-.637.15zm14.432 9.857h-14.097l.907-2.825c9.927-5.133 15.046-8.445 17.519-10.585-.439 1.357-4.179 12.944-4.329 13.41zm6.391-19.827l-.857 2.67-.021.063-.015.046-.095.297-.085.266-.1.312-.011.032-.112.35c-.085.156-.211.314-.378.471-1.693 1.592-7.497 3.239-15.556 5.18l2.333-7.269-8.981 8.83-5.662 1.307 12.7-12.555 3.118-3.083h14.712l-.99 3.083z"/><path fill="#EF3E33" d="M18.49 23.843h14.098c.149-.466 3.89-12.053 4.328-13.41-2.473 2.14-7.591 5.452-17.519 10.585l-.907 2.825z"/><path fill="#EF3E33" d="M25.255.933l-3.118 3.083-12.7 12.554 5.662-1.307 8.981-8.83-2.333 7.269c8.06-1.94 13.863-3.588 15.556-5.18.167-.156.293-.314.378-.471l.043-.075c.039-.092.06-.183.069-.272l.011-.034.1-.312.085-.266.095-.297.015-.046.021-.063.857-2.67.989-3.083h-14.711z"/><path fill="#fff" d="M6.294 23.798l-.119.045h.072l.047-.045z"/><path fill="#fff" d="M38.121 6.686l-.021.063c.331.167.594.439.524.895-.032.446-.403 1.062-1.426 1.915-.306.257-.672.533-1.102.834l-.319.218c-3.104 2.083-9.282 5.211-21.007 9.899-2.554 1.021-5.371 2.116-8.476 3.288l-.046.045h-.073l-.01.005h7.634c2.017-1 3.88-1.943 5.598-2.83 9.927-5.133 15.046-8.445 17.519-10.585 2.992-2.586 2.118-3.455 1.205-3.747z"/><path fill="#fff" d="M36.096 10.393c.43-.301.796-.577 1.102-.834l.022-.067c-.293.279-.664.578-1.124.901z"/><path fill="#fff" d="M37.724 7.977l-.043.075-.006.021.049-.096z"/><path fill="#fff" d="M21.746 13.702c8.111-1.952 13.925-3.575 15.576-5.18h-.02c-1.693 1.592-7.496 3.24-15.556 5.18z"/><path fill="#fff" d="M37.547 8.472l.078-.104-.078.104z"/><path fill="#fff" d="M37.917 7.531l-.013-.172-.009.028.022.144z"/><linearGradient id="a" gradientUnits="userSpaceOnUse" x1="171.176" y1="7.131" x2="171.178" y2="7.131" gradientTransform="matrix(1 0 -.319 1 -130.926 0)"><stop offset="0" stop-color="#EF3E33"/><stop offset=".436" stop-color="#EF3E33"/><stop offset=".983" stop-color="#B61F24"/></linearGradient><path fill="url(#a)" d="M37.975 7.138v.002l.006-.019h-.001l-.005.017z"/><path fill="#fff" d="M38.086 6.795c.311.169.568.438.538.849.069-.455-.193-.728-.524-.895l-.015.046h.001z"/><linearGradient id="b" gradientUnits="userSpaceOnUse" x1="136.199" y1="9.078" x2="170.38" y2="9.078" gradientTransform="matrix(.996 .001 -.318 1.002 -127.929 -2.11)"><stop offset="0" stop-color="#EF3E33"/><stop offset=".618" stop-color="#B61F24"/><stop offset=".983" stop-color="#EF3E33"/></linearGradient><path fill="url(#b)" d="M38.108 7.328c-.024-.082-.063-.16-.118-.236l-.008.029.126.207z"/><linearGradient id="c" gradientUnits="userSpaceOnUse" x1="101.441" y1="7.21" x2="173.799" y2="7.21" gradientTransform="matrix(1 0 -.319 1 -130.926 0)"><stop offset="0" stop-color="#EF3E33"/><stop offset=".436" stop-color="#EF3E33"/><stop offset=".983" stop-color="#B61F24"/></linearGradient><path fill="url(#c)" d="M38.108 7.328c-.024-.082-.063-.16-.118-.236l-.008.029.126.207z"/><path fill="#CE3431" d="M37.98 7.121h.001l.008-.029-.009.029z"/><linearGradient id="d" gradientUnits="userSpaceOnUse" x1="169.533" y1="8.975" x2="169.534" y2="8.975" gradientTransform="matrix(.996 .001 -.318 1.002 -127.929 -2.11)"><stop offset="0" stop-color="#EF3E33"/><stop offset=".618" stop-color="#B61F24"/><stop offset=".983" stop-color="#EF3E33"/></linearGradient><path fill="url(#d)" d="M37.98 7.121h.001l.008-.029-.009.029z"/><linearGradient id="e" gradientUnits="userSpaceOnUse" x1="171.176" y1="7.106" x2="171.178" y2="7.106" gradientTransform="matrix(1 0 -.319 1 -130.926 0)"><stop offset="0" stop-color="#EF3E33"/><stop offset=".436" stop-color="#EF3E33"/><stop offset=".983" stop-color="#B61F24"/></linearGradient><path fill="url(#e)" d="M37.98 7.121h.001l.008-.029-.009.029z"/><path fill="#fff" d="M38.086 6.795l-.096.297c.055.076.094.154.118.236.231.478.151 1.182-.888 2.163l-.022.067c.968-.856 1.357-1.471 1.426-1.915.03-.411-.227-.679-.538-.848z"/><path fill="#fff" d="M37.99 7.092l.096-.297h-.001l-.095.297z"/><linearGradient id="f" gradientUnits="userSpaceOnUse" x1="171.176" y1="6.943" x2="171.179" y2="6.943" gradientTransform="matrix(1 0 -.319 1 -130.926 0)"><stop offset="0" stop-color="#EF3E33"/><stop offset=".436" stop-color="#EF3E33"/><stop offset=".983" stop-color="#B61F24"/></linearGradient><path fill="url(#f)" d="M37.99 7.092l.096-.297h-.001l-.095.297z"/><path fill="#fff" d="M38.108 7.328l-.126-.207-.006.019c.063.109.094.201.085.229.082.336-.205.716-.513 1.103l-.026.084-.037.113c.521-.509.74-.956.623-1.341z"/><path fill="#fff" d="M37.904 7.357v.002l.071-.22v-.002l-.071.22z"/><linearGradient id="g" gradientUnits="userSpaceOnUse" x1="171.176" y1="7.248" x2="171.178" y2="7.248" gradientTransform="matrix(1 0 -.319 1 -130.926 0)"><stop offset="0" stop-color="#EF3E33"/><stop offset=".436" stop-color="#EF3E33"/><stop offset=".983" stop-color="#B61F24"/></linearGradient><path fill="url(#g)" d="M37.904 7.357v.002l.071-.22v-.002l-.071.22z"/><polygon fill="#fff" points="37.545,8.474 37.547,8.472 37.545,8.474"/><linearGradient id="h" gradientUnits="userSpaceOnUse" x1="171.173" y1="8.473" x2="171.174" y2="8.473" gradientTransform="matrix(1 0 -.319 1 -130.926 0)"><stop offset="0" stop-color="#EF3E33"/><stop offset=".436" stop-color="#EF3E33"/><stop offset=".983" stop-color="#B61F24"/></linearGradient><polygon fill="url(#h)" points="37.545,8.474 37.547,8.472 37.545,8.474"/><path fill="#fff" d="M37.625 8.367c.21-.294.311-.571.292-.836-.003.321-.148.627-.292.836z"/><path fill="#fff" d="M20.997 16.035c8.735-3.062 14.899-5.587 16.506-7.513h-.001c-1.64 1.906-7.771 4.453-16.505 7.513z"/><linearGradient id="i" gradientUnits="userSpaceOnUse" x1="101.417" y1="12.279" x2="173.797" y2="12.279" gradientTransform="matrix(1 0 -.319 1 -130.926 0)"><stop offset="0" stop-color="#EF3E33"/><stop offset=".436" stop-color="#EF3E33"/><stop offset=".983" stop-color="#B61F24"/></linearGradient><path fill="url(#i)" d="M20.997 16.035c8.735-3.062 14.899-5.587 16.506-7.513h-.001c-1.64 1.906-7.771 4.453-16.505 7.513z"/><path fill="#fff" d="M38.06 7.369c.009-.028-.022-.12-.085-.229l-.071.22.013.172c.019.265-.081.542-.292.836l-.078.104c.308-.387.595-.767.513-1.103z"/><path fill="#fff" d="M38.108 7.328c.117.385-.102.832-.624 1.341l-.264.822c1.039-.981 1.119-1.685.888-2.163z"/><path fill="#fff" d="M37.674 8.073c-.081.15-.198.301-.353.449h.181l.043-.049.129-.4z"/><path fill="#fff" d="M37.917 7.531l-.013-.172v-.002l-.1.312c-.011.102-.033.204-.08.307l-.049.097c-.081.15-.198.301-.353.449-1.651 1.604-7.464 3.228-15.576 5.18-2.071.5-4.295 1.017-6.647 1.562l-5.662 1.307-5.147 5.087c5.155-1.706 9.989-3.305 14.297-4.787.823-.282 1.626-.562 2.41-.836 8.734-3.061 14.865-5.607 16.505-7.513l.043-.049.001-.002.078-.104c.145-.209.29-.515.293-.836z"/><path fill="#fff" d="M37.681 8.052c-.085.156-.211.314-.378.471h.02c.154-.148.272-.299.353-.449l.005-.022z"/><path fill="#fff" d="M37.681 8.052c-.085.156-.211.314-.378.471h.02c.154-.148.272-.299.353-.449l.005-.022z"/><linearGradient id="j" gradientUnits="userSpaceOnUse" x1="101.109" y1="7.092" x2="173.813" y2="7.092" gradientTransform="matrix(1 0 -.319 1 -130.926 0)"><stop offset="0" stop-color="#EF3E33"/><stop offset=".436" stop-color="#EF3E33"/><stop offset=".983" stop-color="#B61F24"/></linearGradient><path fill="url(#j)" d="M37.975 7.138l.005-.017-.063-.076.058.093z"/><linearGradient id="k" gradientUnits="userSpaceOnUse" x1="169.688" y1="7.092" x2="171.177" y2="7.092" gradientTransform="matrix(1 0 -.319 1 -130.926 0)"><stop offset="0" stop-color="#EF3E33"/><stop offset=".436" stop-color="#EF3E33"/><stop offset=".983" stop-color="#B61F24"/></linearGradient><path fill="url(#k)" d="M37.975 7.138l.005-.017-.063-.076.058.093z"/><path fill="#CE3431" d="M37.98 7.121l.009-.029-.205-.209.132.162.064.076z"/><linearGradient id="l" gradientUnits="userSpaceOnUse" x1="136.169" y1="8.871" x2="170.381" y2="8.871" gradientTransform="matrix(.996 .001 -.318 1.002 -127.929 -2.11)"><stop offset="0" stop-color="#EF3E33"/><stop offset=".618" stop-color="#B61F24"/><stop offset=".983" stop-color="#EF3E33"/></linearGradient><path fill="url(#l)" d="M37.98 7.121l.009-.029-.205-.209.132.162.064.076z"/><path fill="#fff" d="M37.502 8.522l.043-.049-.043.049z"/><linearGradient id="m" gradientUnits="userSpaceOnUse" x1="102.144" y1="8.498" x2="173.77" y2="8.498" gradientTransform="matrix(1 0 -.319 1 -130.926 0)"><stop offset="0" stop-color="#EF3E33"/><stop offset=".436" stop-color="#EF3E33"/><stop offset=".983" stop-color="#B61F24"/></linearGradient><path fill="url(#m)" d="M37.502 8.522l.043-.049-.043.049z"/><linearGradient id="n" gradientUnits="userSpaceOnUse" x1="169.706" y1="8.498" x2="171.173" y2="8.498" gradientTransform="matrix(1 0 -.319 1 -130.926 0)"><stop offset="0" stop-color="#EF3E33"/><stop offset=".436" stop-color="#EF3E33"/><stop offset=".983" stop-color="#B61F24"/></linearGradient><path fill="url(#n)" d="M37.502 8.522l.043-.049-.043.049z"/><path fill="#fff" d="M37.53 8.522l.015-.049-.042.049h.027z"/><path d="M38.624 7.644c.069-.455-.193-.728-.524-.895l-.015.046h.001l-.182.564.013.172c-.003.32-.147.627-.292.836l-.122.155c-1.607 1.926-7.771 4.45-16.506 7.513-.784.273-1.587.554-2.41.836-4.308 1.482-9.142 3.081-14.297 4.787l-.609.604-1.6 1.581h4.094l.119-.045c3.105-1.172 5.922-2.268 8.476-3.288 11.725-4.688 17.903-7.816 21.007-9.899l.319-.218c.43-.301.796-.577 1.102-.834 1.023-.853 1.394-1.469 1.426-1.915z"/></svg>