<svg xmlns="http://www.w3.org/2000/svg" width="236" height="40" viewBox="-59 -10 236 40" enable-background="new -59 -10 236 40"><path d="M2.762 22.73h-2.166l.352-1.395h9.601l-.318 1.395h-2.483l-2.396 6.891h-4.896l2.306-6.891zm17.719-1.394l.792.045c.305.033.593.098.864.197.271.102.502.246.696.434.193.188.302.434.326.734v.139c-.013.541-.095 1.041-.248 1.504l-.088.205c-.211.617-.49 1.098-.837 1.441-.346.344-.771.621-1.277.828l.828 2.758h-5.336l-1.022-2.773-.898 2.773h-4.949l2.836-8.285h8.313zm-4.737 4.07c.703 0 1.252-.094 1.646-.281.395-.188.672-.52.836-1 .106-.418.16-.91.16-1.473h-1.708l-.934 2.754zm19.394-1.312l-.008 2.395-.026 1.511-.052.938-.07.684h-5.443v-1.207h-3.912l-.952 1.207h-1.656l6.271-8.285h5.848v2.758zm-8.491 3.004h2.889v-3.773l-2.889 3.773zm21.845 2.523h-4.616l2.202-6.703h-2.467l-2.325 6.703h-4.809l2.836-8.285h10.5l.389.109.342.285.248.391.132.422-2.432 7.078zm3.821-6.359l.07-.266c.07-.238.182-.461.334-.664.152-.205.326-.379.52-.525.194-.146.406-.262.635-.348.228-.082.447-.123.659-.123h6.943l-.029.234-.041.236-.336.922h-2.625l-.052.182-.105.43-.053.504.019.281 1.092 2.707.026.305.027.371v.062l-.071.391-.309.578c-.124.199-.268.375-.432.531-.166.16-.34.291-.528.395-.188.102-.382.156-.582.156h-7.415v-.078l.044-.27.097-.297.22-.492.114-.258h2.8l.018-.078.106-.295.052-.377-.036-.191-1.129-2.785-.026-.312-.025-.484v-.062l.018-.38zm19.044-1.926l.793.045c.305.033.592.098.863.197.27.102.502.246.699.434.191.188.299.434.324.734l-.02.078c0 .154-.039.381-.117.676l-.273.906-.176.445-.156.305c-.271.355-.512.635-.721.848-.211.207-.459.375-.732.5-.273.123-.613.225-1.004.295l-1.523.25h-3.332l-.828 2.57h-4.949l2.836-8.287h8.316v.004zm-4.738 4.07c.705 0 1.25-.094 1.637-.281s.664-.52.828-1l.088-.328.158-.527c.047-.18.07-.387.07-.617h-1.852l-.929 2.753zm7.555 3.008c0-.363.055-.832.168-1.402.113-.564.273-1.154.484-1.762.176-.488.375-.967.59-1.438.215-.473.457-.887.711-1.254.262-.367.535-.66.818-.883.291-.225.592-.34.908-.34h9.301l.441.34.229.32.088.297.018.25c0 .367-.053.832-.158 1.402-.105.566-.264 1.156-.473 1.762-.176.488-.379.969-.602 1.438-.223.473-.461.891-.723 1.254-.258.367-.537.66-.836.887-.297.223-.607.336-.926.336h-9.299c-.318-.211-.521-.426-.607-.652-.09-.223-.133-.391-.133-.508v-.047zm5.25-.187h1.445l.195-.328.402-.77c.152-.301.303-.633.451-.992.146-.359.266-.707.361-1.043l.475-1.877-.041-.25-.043-.234h-1.43l-.203.328-.387.738-.449.967s-.271.701-.354 1.037l-.51 1.943.043.25.045.231zm19.129-6.891l.791.045c.307.033.594.098.865.197.27.102.504.246.695.434.195.188.301.434.328.734v.139c-.012.541-.094 1.041-.25 1.504l-.086.205c-.211.617-.492 1.098-.836 1.441-.348.344-.773.621-1.279.828l.828 2.758h-5.338l-1.021-2.773-.898 2.773h-4.952l2.836-8.285h8.317zm-4.739 4.07c.705 0 1.254-.094 1.648-.281.391-.188.672-.52.836-1 .105-.418.16-.91.16-1.473h-1.711l-.933 2.754zm11.926-2.676h-2.166l.354-1.395h9.6l-.318 1.395h-2.48l-2.396 6.891h-4.896l2.302-6.891zm17.055 1.364l-.012 2.395-.025 1.511-.053.938-.07.684h-5.443v-1.207h-3.91l-.951 1.207h-1.656l6.27-8.285h5.852v2.757zm-8.492 3.004h2.889v-3.773l-2.889 3.773zm12.664-4.368h-2.164l.352-1.395h9.602l-.318 1.395h-2.482l-2.395 6.891h-4.896l2.301-6.891zm6.73 6.891l.371-1.395h2.271l1.852-5.496h-2.168l.354-1.395h9.602l-.316 1.395h-2.484l-1.92 5.496h2.412l-.371 1.395h-9.603zm11.942-1.207c0-.363.055-.832.168-1.402.113-.564.273-1.154.484-1.762.176-.488.373-.967.59-1.438.217-.473.457-.887.713-1.254s.533-.66.818-.883c.289-.225.592-.34.906-.34h9.301l.441.34.227.32.09.297.016.25c0 .367-.049.832-.156 1.402-.105.566-.266 1.156-.475 1.762-.176.488-.377.969-.598 1.438-.225.473-.463.891-.723 1.254-.26.367-.541.66-.838.887-.297.223-.607.336-.924.336h-9.299c-.32-.211-.521-.426-.611-.652-.086-.223-.131-.391-.131-.508v-.047zm5.25-.187h1.445l.193-.328.404-.77c.152-.301.301-.633.449-.992s.27-.707.365-1.043l.475-1.877-.045-.25-.041-.234h-1.426l-.205.328-.389.738-.449.967c-.152.357-.27.701-.352 1.037l-.512 1.943.043.25.045.231zm19.996 1.394h-4.617l2.203-6.703h-2.465l-2.326 6.703h-4.807l2.836-8.285h10.5l.385.109.344.285.246.391.131.422-2.43 7.078z"/><path d="M92.361-9.411l-2.848 8.7h-2.562l2.684-8.7h-15.168l-8.258 25.208h15.254l3.129-9.645h2.727l-3.215 9.645h15.496l8.215-25.208h-15.454zm6.102 23.368h-12l3.213-9.646h-6.182l-3.172 9.646h-11.793l7.035-21.528h11.754l-2.725 8.65h6.061l2.846-8.65h11.998l-7.035 21.528z" fill="none"/><path d="M123.369 1.156c-.23.546-.453 1.118-.668 1.716-.219.596-.406 1.193-.57 1.79l-.812 3.282h.16l.59-1.219c.23-.479.469-1.01.711-1.59.246-.58.477-1.176.691-1.79.219-.614.41-1.218.57-1.815l.73-3.082h-.121c-.164.298-.359.688-.59 1.168-.23.477-.458.992-.691 1.54z" fill="none"/><path d="M141.264-.487c.285-1.573.428-2.89.428-3.952 0-.298-.02-.638-.061-1.02-.041-.38-.16-.778-.367-1.192-.203-.414-.516-.854-.934-1.317-.422-.464-1.012-.944-1.77-1.442h-23.387c-1.002 0-1.949.332-2.844.994-.895.664-1.715 1.526-2.461 2.584-.746 1.062-1.43 2.272-2.055 3.63-.623 1.36-1.18 2.75-1.668 4.176-.566 1.692-.996 3.324-1.281 4.898-.283 1.576-.426 2.894-.426 3.953v.098c0 .266.035.582.102.945.066.367.209.766.426 1.195.219.43.516.887.895 1.367.379.484.895.936 1.547 1.369h23.508c1 0 1.945-.324 2.824-.967.883-.648 1.701-1.508 2.461-2.586.758-1.078 1.457-2.296 2.094-3.657.637-1.358 1.199-2.75 1.688-4.176.57-1.692.996-3.324 1.281-4.9zm-2.785 4.252c-.434 1.292-.93 2.544-1.484 3.754s-1.152 2.294-1.789 3.254c-.641.959-1.316 1.734-2.033 2.312-.721.582-1.471.871-2.258.871h-23.061c-.785-.562-1.279-1.129-1.484-1.691-.203-.562-.301-1.012-.301-1.344v-.098c0-.96.125-2.17.383-3.628s.658-2.982 1.203-4.574c.432-1.292.92-2.542 1.461-3.754.543-1.208 1.133-2.294 1.77-3.256.637-.96 1.316-1.732 2.037-2.312.717-.58 1.467-.87 2.254-.87h22.98c.459.298.818.597 1.076.895.26.298.449.58.57.844.123.266.197.514.221.746l.041.646c0 .963-.127 2.17-.383 3.629-.262 1.46-.661 2.984-1.203 4.576z" fill="none"/><path d="M57.1 5.854c.164-.629.386-1.326.67-2.089l.854-2.262c.286-.746.562-1.442.834-2.088l.651-1.517h9.596l.449-1.117.164-.374.285-.794.609-1.84.324-3.183h-20.698c-.977 0-1.898.332-2.767.994-.867.664-1.674 1.526-2.42 2.584-.746 1.062-1.422 2.272-2.033 3.63-.61 1.36-1.146 2.75-1.606 4.176-.542 1.692-.956 3.324-1.24 4.898-.286 1.576-.428 2.894-.428 3.953v.098c0 .266.034.58.102.945.068.369.204.766.408 1.195.204.432.494.887.874 1.369.378.48.88.934 1.504 1.367h19.278c.488 0 .906-.156 1.262-.473.352-.316.648-.709.895-1.195.242-.48.426-1 .547-1.562.123-.566.184-1.078.184-1.541l.121-2.536h-9.271l.852-2.638zm6.711 4.476l-.041.545c0 .297-.029.629-.082.992-.053.367-.127.699-.225.996-.094.297-.221.555-.383.77-.164.215-.355.324-.57.324h-18.79c-.786-.562-1.28-1.129-1.484-1.691s-.306-1.012-.306-1.344v-.098c0-.96.128-2.17.386-3.628.256-1.458.645-2.982 1.16-4.574.433-1.292.914-2.542 1.442-3.754.529-1.208 1.105-2.294 1.729-3.256.624-.96 1.288-1.732 1.994-2.312.704-.58 1.437-.87 2.196-.87h18.913l-.123.994-.488 1.542-.406 1.094h-9.475c-.054.068-.23.422-.53 1.07-.298.646-.636 1.442-1.016 2.386-.378.944-.767 1.94-1.16 2.984-.392 1.044-.698 1.981-.916 2.808l-1.22 3.778.102.622.103.622h9.19z" fill="none"/><path d="M41.646-6.105c-.271-.611-.609-1.159-1.018-1.64-.406-.479-.86-.878-1.362-1.192-.5-.315-1.023-.472-1.563-.472h-27.209l-8.215 25.208h15.374l5.774-17.402h2.724l-5.449 17.402h14.844l6.628-20.085c-.08-.598-.256-1.205-.528-1.819zm-7.199 20.062h-11.468l5.45-17.402h-6.142l-5.776 17.402h-11.915l7.036-21.528h26.07c.325 0 .649.099.976.298.326.2.61.448.854.746.244.299.454.628.631.994.176.366.292.73.344 1.094l-6.06 18.396z" fill="none"/><path d="M127.053-3.941h-3.541l-.51.87c-.281.515-.602 1.152-.953 1.914-.352.763-.709 1.599-1.078 2.511-.365.911-.656 1.798-.875 2.659l-1.26 5.07.102.622.104.622h3.578l.486-.847c.299-.529.631-1.193.998-1.989.367-.794.73-1.666 1.098-2.61.367-.943.656-1.848.877-2.71l1.217-4.872c0-.166-.041-.374-.121-.622-.083-.246-.122-.452-.122-.618zm-2.524 5.668c-.16.631-.367 1.276-.609 1.94-.242.662-.502 1.3-.773 1.914-.273.614-.527 1.178-.773 1.69-.242.514-.447.92-.611 1.218h-1.139l1.02-3.977c.16-.63.357-1.275.59-1.939.23-.662.48-1.292.75-1.889.273-.596.531-1.134.773-1.615l.613-1.168h1.094l-.935 3.826z" fill="none"/><path d="M173.17-8.441c-.84-.38-1.723-.636-2.645-.77-.922-.13-1.734-.198-2.441-.198h-21.676l-8.176 25.208h15.742l1.098-3.729 1.301 3.729h16.551l-2.277-8.005c1.082-.628 2.018-1.432 2.805-2.41.785-.978 1.438-2.262 1.949-3.854l-.039.149.121-.397c.246-.763.443-1.542.592-2.336.146-.797.236-1.608.266-2.437v-.45c-.082-1.193-.422-2.146-1.016-2.857-.596-.714-1.315-1.26-2.155-1.643zm1.543 4.899c-.025 1.458-.23 2.766-.609 3.928l-.242.496c-.488 1.624-1.168 2.876-2.035 3.754s-1.926 1.601-3.172 2.162l2.033 7.16h-13.176l-2.561-7.208-2.199 7.208h-12.199l6.953-21.528h20.578c.572 0 1.227.042 1.973.124.746.084 1.453.256 2.117.522.664.266 1.238.638 1.727 1.12.488.481.76 1.117.812 1.914v.348z" fill="none"/><path fill="#EF3E33" d="M39.531-6.527c-.243-.298-.527-.546-.854-.746-.326-.199-.65-.298-.976-.298h-26.067l-7.036 21.528h11.916l5.776-17.402h6.142l-5.45 17.402h11.468l6.06-18.396c-.054-.363-.168-.728-.344-1.094-.181-.363-.391-.695-.635-.994z"/><path d="M42.094-6.228c-.298-.696-.67-1.318-1.118-1.864s-.956-.994-1.526-1.343c-.568-.348-1.152-.521-1.748-.521h-27.574l-8.58 26.3h16.47l5.776-17.402h1.586l-5.45 17.402h15.982l6.75-20.535c-.08-.662-.27-1.342-.568-2.037zm-6.548 22.025h-14.844l5.449-17.402h-2.724l-5.774 17.402h-15.374l8.215-25.208h27.208c.542 0 1.063.158 1.563.472.502.314.956.713 1.362 1.192.408.482.746 1.028 1.018 1.64.271.614.448 1.219.528 1.816l-6.627 20.088z"/><path fill="#EF3E33" d="M54.518 9.708l-.102-.622 1.22-3.778c.216-.828.522-1.764.916-2.808s.78-2.04 1.16-2.984c.38-.943.718-1.739 1.016-2.386s.475-1.002.53-1.07h9.475l.406-1.094.488-1.542.123-.994h-18.912c-.758 0-1.492.29-2.196.87-.706.582-1.37 1.353-1.994 2.312-.624.962-1.2 2.046-1.729 3.256-.528 1.21-1.01 2.46-1.442 3.754-.516 1.592-.901 3.116-1.16 4.574-.258 1.458-.386 2.668-.386 3.628v.098c0 .332.102.781.306 1.344s.698 1.127 1.484 1.691h18.79c.215 0 .406-.109.57-.324.162-.215.289-.473.383-.77.094-.299.172-.629.225-.996.053-.363.082-.695.082-.992l.041-.545h-9.19l-.104-.622z"/><path d="M65.885 11.074l.164-3.13h-9.029l.57-1.891c.162-.596.366-1.25.61-1.964.243-.712.5-1.424.771-2.138.272-.712.536-1.376.794-1.988l.631-1.516h9.637l.773-1.79.164-.546.73-2.288.406-3.78h-21.27c-1.03 0-2.006.34-2.928 1.02-.923.679-1.769 1.566-2.542 2.66-.772 1.095-1.479 2.336-2.116 3.729-.636 1.392-1.2 2.817-1.688 4.275-.567 1.723-.996 3.398-1.282 5.022-.283 1.624-.426 2.981-.426 4.077v.098c0 .266.042.605.124 1.02.08.414.236.863.466 1.344.23.479.557.988.977 1.516.42.533.981 1.041 1.688 1.541h19.4c.57 0 1.062-.176 1.484-.523.42-.348.766-.785 1.037-1.316.271-.529.475-1.102.611-1.713.134-.617.216-1.191.244-1.719zm-.489-.051c0 .465-.061.977-.184 1.541-.123.562-.305 1.082-.547 1.562-.246.484-.543.877-.895 1.197-.355.314-.773.471-1.262.471h-19.277c-.624-.434-1.126-.885-1.504-1.369-.38-.479-.67-.938-.874-1.367s-.34-.828-.408-1.195c-.067-.363-.102-.68-.102-.945v-.098c0-1.059.142-2.376.428-3.953.284-1.574.696-3.206 1.24-4.898.46-1.424.998-2.815 1.606-4.176.609-1.358 1.287-2.568 2.033-3.63.746-1.06 1.553-1.92 2.42-2.584.868-.662 1.79-.994 2.767-.994h20.699l-.324 3.182-.609 1.841-.285.794v.006l-.164.374-.449 1.117h-9.596l-.651 1.517c-.272.646-.548 1.342-.834 2.088l-.854 2.261s-.508 1.458-.67 2.089l-.854 2.634h9.271l-.121 2.535zm26.598-20.98l-2.848 8.65h-1.504l2.684-8.65h-16.226l-8.621 26.3h16.309l3.172-9.646h1.623l-3.209 9.646h16.594l8.578-26.3h-16.552zm7.606 25.754h-15.496l3.215-9.645h-2.727l-3.129 9.645h-15.254l8.258-25.208h15.168l-2.684 8.7h2.562l2.848-8.7h15.453l-8.214 25.208z"/><polygon fill="#EF3E33" points="93.498,-7.571 90.65,1.082 84.592,1.082 87.318,-7.571 75.564,-7.571 68.529,13.957 80.322,13.957 83.494,4.311 89.676,4.311 86.463,13.957 98.463,13.957 105.496,-7.571"/><path d="M140.471 4.662c.57-1.722 1.004-3.398 1.301-5.022s.449-2.983.449-4.078c0-.332-.029-.703-.082-1.117-.055-.414-.199-.862-.426-1.343-.23-.479-.586-.978-1.059-1.491-.473-.515-1.133-1.036-1.973-1.566h-23.508c-1.055 0-2.059.34-3.008 1.02-.949.679-1.816 1.566-2.602 2.66-.789 1.095-1.512 2.336-2.176 3.729-.664 1.392-1.242 2.817-1.729 4.275-.57 1.723-.998 3.398-1.283 5.022s-.426 2.981-.426 4.077v.098c0 .266.041.605.121 1.02.082.414.238.863.469 1.344.229.479.561.988.996 1.516.434.533 1.004 1.041 1.707 1.541h23.672c1.055 0 2.051-.34 2.988-1.02.936-.68 1.801-1.566 2.602-2.66s1.531-2.334 2.199-3.729c.662-1.395 1.252-2.818 1.768-4.276zm-4.27 7.58c-.76 1.078-1.578 1.938-2.459 2.586-.879.645-1.824.969-2.824.969h-23.51c-.652-.434-1.168-.887-1.547-1.367-.379-.482-.676-.938-.895-1.369-.215-.43-.359-.828-.426-1.195-.066-.365-.102-.682-.102-.945v-.098c0-1.059.143-2.376.426-3.953.285-1.574.713-3.206 1.281-4.898.488-1.424 1.045-2.815 1.668-4.176.625-1.357 1.309-2.568 2.055-3.63.746-1.06 1.566-1.92 2.461-2.584.895-.662 1.842-.994 2.844-.994h23.387c.758.498 1.348.978 1.77 1.442.418.464.73.903.934 1.317.207.414.326.812.367 1.192.043.382.061.722.061 1.02 0 1.062-.143 2.379-.428 3.952-.285 1.576-.711 3.208-1.281 4.898-.488 1.424-1.049 2.817-1.688 4.176-.637 1.361-1.332 2.579-2.094 3.657zm-12.445-13.174c-.242.481-.5 1.02-.773 1.615-.27.597-.52 1.227-.75 1.889-.232.664-.43 1.31-.59 1.939l-1.02 3.977h1.139c.164-.298.369-.704.611-1.219.246-.512.5-1.075.773-1.689.271-.612.531-1.25.773-1.914s.449-1.31.609-1.94l.934-3.83h-1.094l-.612 1.172zm1.015-.622l-.73 3.082c-.16.596-.352 1.201-.57 1.815-.213.612-.445 1.21-.691 1.79-.242.58-.48 1.112-.711 1.59l-.59 1.219h-.16l.812-3.282c.164-.597.352-1.194.57-1.79.215-.598.438-1.168.668-1.716.232-.546.461-1.061.695-1.542.227-.48.426-.87.59-1.168h.117v.002z"/><path fill="#EF3E33" d="M140.023-5.084c-.025-.232-.1-.48-.221-.746-.123-.264-.311-.546-.57-.844-.258-.298-.617-.597-1.078-.895h-22.979c-.787 0-1.537.29-2.254.87-.717.582-1.398 1.353-2.037 2.312-.635.962-1.225 2.046-1.77 3.256-.543 1.21-1.031 2.46-1.461 3.754-.543 1.592-.945 3.116-1.203 4.574s-.383 2.668-.383 3.628v.098c0 .33.1.781.301 1.342.207.562.699 1.129 1.484 1.693h23.062c.785 0 1.539-.291 2.258-.873.715-.578 1.395-1.352 2.031-2.311.639-.96 1.234-2.044 1.791-3.253.553-1.209 1.049-2.461 1.482-3.755.543-1.592.943-3.115 1.203-4.573.256-1.458.383-2.666.383-3.629l-.039-.648zm-13.947 7.257c-.219.862-.508 1.767-.875 2.71-.369.944-.734 1.814-1.1 2.61-.369.796-.701 1.458-.998 1.989l-.484.847h-3.578l-.105-.622-.102-.622 1.26-5.07c.217-.861.51-1.748.877-2.659.367-.912.725-1.748 1.078-2.511.352-.762.672-1.399.955-1.914l.51-.87h3.539c0 .166.041.374.123.622.08.25.123.456.123.622l-1.223 4.868z"/><path d="M175.752-7.098c-.637-.778-1.398-1.385-2.277-1.814-.883-.43-1.809-.712-2.789-.846-.973-.132-1.842-.198-2.602-.198h-22.043l-8.541 26.3h16.795l.812-2.688.938 2.688h17.529l-2.318-8.254c1.031-.662 1.924-1.481 2.686-2.46.76-.976 1.395-2.244 1.91-3.804l.242-.546c.217-.662.389-1.4.51-2.212.125-.812.195-1.666.225-2.561v-.498c-.081-1.292-.44-2.328-1.077-3.107zm.59 3.603c-.027.83-.117 1.64-.266 2.437-.148.794-.348 1.573-.59 2.336l-.123.397.041-.149c-.516 1.59-1.164 2.876-1.949 3.854-.791.979-1.723 1.782-2.809 2.41l2.279 8.005h-16.553l-1.299-3.73-1.1 3.73h-15.738l8.174-25.208h21.676c.709 0 1.52.068 2.441.198.922.134 1.805.39 2.645.77.84.383 1.557.928 2.156 1.643.594.712.934 1.666 1.016 2.857v.45h-.001z"/><path fill="#EF3E33" d="M173.9-5.804c-.488-.48-1.062-.854-1.727-1.12-.664-.265-1.371-.438-2.117-.522-.746-.082-1.402-.124-1.973-.124h-20.578l-6.953 21.528h12.199l2.199-7.208 2.561 7.208h13.176l-2.033-7.16c1.246-.562 2.305-1.284 3.172-2.162s1.547-2.128 2.035-3.754l.242-.496c.379-1.162.584-2.47.609-3.928v-.348c-.052-.797-.323-1.435-.812-1.914zm-11.386 5.492c-.406 1.26-1.092 2.13-2.055 2.609-.959.482-2.324.72-4.086.72l2.318-7.159h4.229c0 1.527-.133 2.804-.406 3.83z"/><path d="M-33.314 13.109l.296-.066 1.278-.301.654-.152 1.054-.246.636-.146 1.604-.377.281-.07 1.385-.328.224-.055 2.6-8.098-10.012 9.839z" fill="none"/><path d="M1.246 2.664c.078-.168.113-.338.132-.506l-.019.053-.113.453z" fill="none"/><path d="M-36.137 14.703c3.887-.902 7.562-1.758 10.982-2.582l3.856-12.007-14.838 14.589z" fill="none"/><path d="M-24.506-3.88l-20.982 20.744c3.23-.75 6.354-1.469 9.354-2.16l14.838-14.589-3.856 12.007c13.316-3.205 22.906-5.928 25.702-8.557.276-.258.486-.518.626-.777l.186-.578.018-.054.166-.517.14-.439.158-.492.024-.074.033-.105 1.416-4.41 1.635-5.094h-24.307l-5.151 5.095z" fill="none"/><path d="M-29.396 12.195l1.604-.379.281-.07 1.385-.328.224-.053 2.6-8.098-10.012 9.844.296-.066 1.278-.299.654-.152 1.054-.246.636-.153z" fill="none"/><path d="M5.268-9.957h-24.306c-.326 0-.685.16-.954.428l-26.136 25.837-8.502 8.402-3.652 3.613c-.304.301-.452.688-.384 1.012.067.32.34.525.708.525h6.672l.076.008h12.611c.179 0 .368-.045.551-.137 2.611-1.295 5.109-2.553 7.458-3.758l-.933 2.906c-.174.541.128.98.676.98h23.292c.547 0 1.133-.443 1.307-.98l7.04-21.809c2.388-2.12 3.562-3.843 3.58-5.252.008-.626-.225-1.431-1.256-1.969l2.831-8.821c.171-.545-.132-.985-.679-.985zm-36.352 22.547l-.654.152-1.278.299-.296.066 10.012-9.844-2.601 8.098-.224.053-1.384.328-.282.07-1.604.379-.636.148-1.053.251zm23.844 16.289h-23.292l1.5-4.672c16.402-8.477 24.858-13.952 28.944-17.486-.726 2.242-6.906 21.384-7.152 22.158zm10.557-32.759l-1.416 4.41-.033.105-.024.074-.158.493-.14.439-.166.517-.019.053-.185.579c-.14.258-.35.518-.626.778-2.796 2.628-12.384 5.352-25.702 8.555l3.856-12.007-14.839 14.589c-3 .691-6.123 1.41-9.354 2.16l20.983-20.745 5.151-5.094h24.307l-1.635 5.094z"/><path fill="#EF3E33" d="M-30.532 28.879h23.292c.248-.773 6.426-19.916 7.152-22.158-4.086 3.534-12.542 9.007-28.944 17.486l-1.5 4.672z"/><path fill="#EF3E33" d="M-19.354-8.974l-5.151 5.094-20.982 20.744c3.23-.75 6.354-1.469 9.354-2.16l14.838-14.589-3.856 12.007c13.315-3.205 22.905-5.928 25.701-8.557.276-.258.486-.518.626-.777l.072-.124.113-.45.019-.056.166-.517.14-.439.158-.492.024-.074.033-.106 1.416-4.41 1.635-5.094h-24.306z"/><path fill="#fff" d="M-50.683 28.805l-.195.074h.12l.075-.074z"/><path fill="#fff" d="M1.899.53l-.036.105c.547.277.983.729.866 1.477-.051.739-.666 1.756-2.355 3.166-.506.424-1.11.882-1.822 1.376l-.526.359c-5.128 3.444-15.334 8.608-34.708 16.354-4.22 1.688-8.874 3.496-14.004 5.438l-.076.074h-.119l-.017.004h12.612c3.334-1.652 6.412-3.211 9.25-4.676 16.402-8.477 24.857-13.952 28.944-17.486 4.944-4.271 3.502-5.71 1.991-6.191z"/><path fill="#fff" d="M-1.446 6.656c.712-.496 1.316-.954 1.822-1.376l.036-.11c-.484.455-1.097.952-1.858 1.486z"/><path fill="#fff" d="M1.246 2.664l-.072.124-.01.036.082-.16z"/><path fill="#fff" d="M-25.154 12.121c13.402-3.224 23.006-5.906 25.734-8.556h-.032c-2.796 2.629-12.384 5.352-25.702 8.556z"/><path fill="#fff" d="M.954 3.481l.128-.172-.128.172z"/><path fill="#fff" d="M1.563 1.927l-.02-.284-.014.045.034.239z"/><linearGradient id="a" gradientUnits="userSpaceOnUse" x1="178.888" y1="13.737" x2="178.89" y2="13.737" gradientTransform="matrix(1 0 .319 -1 -181.609 15)"><stop offset="0" stop-color="#EF3E33"/><stop offset=".436" stop-color="#EF3E33"/><stop offset=".983" stop-color="#B61F24"/></linearGradient><rect x="1.664" y="1.248" fill="url(#a)" width=".004" height=".03"/><path fill="#fff" d="M1.844.709c.514.282.938.722.888 1.4.116-.748-.319-1.2-.865-1.477l-.023.077z"/><linearGradient id="b" gradientUnits="userSpaceOnUse" x1="123.278" y1="12.297" x2="179.728" y2="12.297" gradientTransform="matrix(.996 .001 .318 -1.002 -179.805 13.54)"><stop offset="0" stop-color="#EF3E33"/><stop offset=".618" stop-color="#B61F24"/><stop offset=".983" stop-color="#EF3E33"/></linearGradient><path fill="url(#b)" d="M1.88 1.589l-.196-.387-.014.046.21.341z"/><linearGradient id="c" gradientUnits="userSpaceOnUse" x1="63.368" y1="13.604" x2="183.233" y2="13.604" gradientTransform="matrix(1 0 .319 -1 -181.609 15)"><stop offset="0" stop-color="#EF3E33"/><stop offset=".436" stop-color="#EF3E33"/><stop offset=".983" stop-color="#B61F24"/></linearGradient><path fill="url(#c)" d="M1.88 1.589l-.196-.387-.014.046.21.341z"/><path fill="#CE3431" d="M1.67 1.248l.016-.044v-.002l-.016.046z"/><linearGradient id="d" gradientUnits="userSpaceOnUse" x1="178.33" y1="12.468" x2="178.332" y2="12.468" gradientTransform="matrix(.996 .001 .318 -1.002 -179.805 13.54)"><stop offset="0" stop-color="#EF3E33"/><stop offset=".618" stop-color="#B61F24"/><stop offset=".983" stop-color="#EF3E33"/></linearGradient><path fill="url(#d)" d="M1.67 1.248l.016-.044v-.002l-.016.046z"/><linearGradient id="e" gradientUnits="userSpaceOnUse" x1="178.893" y1="13.775" x2="178.893" y2="13.775" gradientTransform="matrix(1 0 .319 -1 -181.609 15)"><stop offset="0" stop-color="#EF3E33"/><stop offset=".436" stop-color="#EF3E33"/><stop offset=".983" stop-color="#B61F24"/></linearGradient><path fill="url(#e)" d="M1.67 1.248l.016-.044v-.002l-.016.046z"/><path fill="#fff" d="M1.844.709l-.158.493.196.388c.38.79.25 1.954-1.468 3.578l-.036.11c1.6-1.416 2.242-2.433 2.355-3.166.048-.679-.376-1.12-.889-1.403z"/><path fill="#fff" d="M1.684 1.204l.158-.492h-.002l-.156.492z"/><linearGradient id="f" gradientUnits="userSpaceOnUse" x1="178.886" y1="14.043" x2="178.89" y2="14.043" gradientTransform="matrix(1 0 .319 -1 -181.609 15)"><stop offset="0" stop-color="#EF3E33"/><stop offset=".436" stop-color="#EF3E33"/><stop offset=".983" stop-color="#B61F24"/></linearGradient><path fill="url(#f)" d="M1.684 1.204l.158-.492h-.002l-.156.492z"/><path fill="#fff" d="M1.88 1.589l-.21-.339-.01.03.14.38c.134.556-.338 1.184-.848 1.821l-.044.139-.06.187c.864-.842 1.226-1.58 1.032-2.218z"/><path fill="#fff" d="M1.544 1.639v.002l.118-.363v-.002l-.118.363z"/><linearGradient id="g" gradientUnits="userSpaceOnUse" x1="178.881" y1="13.542" x2="178.885" y2="13.542" gradientTransform="matrix(1 0 .319 -1 -181.609 15)"><stop offset="0" stop-color="#EF3E33"/><stop offset=".436" stop-color="#EF3E33"/><stop offset=".983" stop-color="#B61F24"/></linearGradient><path fill="url(#g)" d="M1.544 1.639v.002l.118-.363v-.002l-.118.363z"/><path fill="#fff" d="M.95 3.486l.004-.005-.004.005z"/><linearGradient id="h" gradientUnits="userSpaceOnUse" x1="178.885" y1="11.517" x2="178.885" y2="11.517" gradientTransform="matrix(1 0 .319 -1 -181.609 15)"><stop offset="0" stop-color="#EF3E33"/><stop offset=".436" stop-color="#EF3E33"/><stop offset=".983" stop-color="#B61F24"/></linearGradient><path fill="url(#h)" d="M.95 3.486l.004-.005-.004.005z"/><path fill="#fff" d="M1.082 3.309c.348-.485.514-.945.481-1.382-.005.529-.244 1.036-.481 1.382z"/><path fill="#fff" d="M-26.391 15.977c14.433-5.057 24.617-9.229 27.273-12.412h-.002c-2.712 3.148-12.84 7.355-27.271 12.412z"/><linearGradient id="i" gradientUnits="userSpaceOnUse" x1="63.624" y1="5.229" x2="183.218" y2="5.229" gradientTransform="matrix(1 0 .319 -1 -181.609 15)"><stop offset="0" stop-color="#EF3E33"/><stop offset=".436" stop-color="#EF3E33"/><stop offset=".983" stop-color="#B61F24"/></linearGradient><path fill="url(#i)" d="M-26.391 15.977c14.433-5.057 24.617-9.229 27.273-12.412h-.002c-2.712 3.148-12.84 7.355-27.271 12.412z"/><path fill="#fff" d="M1.802 1.66l-.14-.38-.118.365.02.284c.032.437-.134.897-.482 1.382l-.128.172c.51-.64.982-1.268.848-1.823z"/><path fill="#fff" d="M1.88 1.589c.194.636-.168 1.376-1.032 2.216l-.436 1.36c1.718-1.622 1.85-2.786 1.468-3.576z"/><path fill="#fff" d="M1.164 2.824c-.133.248-.328.496-.582.741h.298l.072-.079.212-.662z"/><path fill="#fff" d="M1.563 1.927l-.02-.284v-.004l-.165.517c-.019.168-.054.336-.132.506l-.082.16c-.133.248-.328.496-.582.741-2.729 2.65-12.332 5.332-25.734 8.556-3.42.824-7.096 1.68-10.981 2.582-3 .691-6.124 1.41-9.354 2.16l-8.504 8.408c8.518-2.824 16.502-5.465 23.622-7.914 1.359-.465 2.686-.926 3.981-1.379 14.43-5.056 24.558-9.261 27.27-12.411l.072-.079.002-.005.128-.172c.235-.346.474-.853.479-1.382z"/><path fill="#fff" d="M1.174 2.788c-.14.258-.35.518-.626.777h.034c.254-.247.449-.493.582-.741l.01-.036z"/><path fill="#fff" d="M1.174 2.788c-.14.258-.35.518-.626.777h.034c.254-.247.449-.493.582-.741l.01-.036z"/><linearGradient id="j" gradientUnits="userSpaceOnUse" x1="63.668" y1="13.801" x2="183.224" y2="13.801" gradientTransform="matrix(1 0 .319 -1 -181.609 15)"><stop offset="0" stop-color="#EF3E33"/><stop offset=".436" stop-color="#EF3E33"/><stop offset=".983" stop-color="#B61F24"/></linearGradient><path fill="url(#j)" d="M1.66 1.276l.01-.028-.107-.124.097.152z"/><linearGradient id="k" gradientUnits="userSpaceOnUse" x1="176.439" y1="13.801" x2="178.888" y2="13.801" gradientTransform="matrix(1 0 .319 -1 -181.609 15)"><stop offset="0" stop-color="#EF3E33"/><stop offset=".436" stop-color="#EF3E33"/><stop offset=".983" stop-color="#B61F24"/></linearGradient><path fill="url(#k)" d="M1.66 1.276l.01-.028-.107-.124.097.152z"/><path fill="#CE3431" d="M1.67 1.248l.014-.046-.338-.344.218.268.106.122z"/><linearGradient id="l" gradientUnits="userSpaceOnUse" x1="123.32" y1="12.639" x2="179.726" y2="12.639" gradientTransform="matrix(.996 .001 .318 -1.002 -179.805 13.54)"><stop offset="0" stop-color="#EF3E33"/><stop offset=".618" stop-color="#B61F24"/><stop offset=".983" stop-color="#EF3E33"/></linearGradient><path fill="url(#l)" d="M1.67 1.248l.014-.046-.338-.344.218.268.106.122z"/><path fill="#fff" d="M.88 3.565l.072-.079-.072.079z"/><linearGradient id="m" gradientUnits="userSpaceOnUse" x1="60.548" y1="11.475" x2="183.336" y2="11.475" gradientTransform="matrix(1 0 .319 -1 -181.609 15)"><stop offset="0" stop-color="#EF3E33"/><stop offset=".436" stop-color="#EF3E33"/><stop offset=".983" stop-color="#B61F24"/></linearGradient><path fill="url(#m)" d="M.88 3.565l.072-.079-.072.079z"/><linearGradient id="n" gradientUnits="userSpaceOnUse" x1="176.368" y1="11.475" x2="178.884" y2="11.475" gradientTransform="matrix(1 0 .319 -1 -181.609 15)"><stop offset="0" stop-color="#EF3E33"/><stop offset=".436" stop-color="#EF3E33"/><stop offset=".983" stop-color="#B61F24"/></linearGradient><path fill="url(#n)" d="M.88 3.565l.072-.079-.072.079z"/><path fill="#fff" d="M.926 3.565l.026-.079-.07.079h.044z"/><path d="M2.731 2.112c.116-.748-.319-1.2-.865-1.477l-.024.074h.002l-.3.934.02.284c-.004.529-.245 1.038-.482 1.382l-.2.256c-2.656 3.183-12.838 7.355-27.272 12.412-1.294.453-2.622.914-3.981 1.379-7.118 2.449-15.104 5.09-23.622 7.914l-1.007.992-2.645 2.617h6.765l.195-.074c5.13-1.941 9.784-3.75 14.004-5.438 19.372-7.746 29.578-12.91 34.708-16.354l.526-.359c.713-.496 1.317-.954 1.823-1.376 1.689-1.41 2.302-2.429 2.355-3.166z"/></svg>