<svg xmlns="http://www.w3.org/2000/svg" width="60" height="60"><path fill="#fff" d="M29.894.203c-16.431 0-29.75 13.319-29.75 29.75 0 16.43 13.319 29.75 29.75 29.75s29.75-13.32 29.75-29.75c.001-16.431-13.32-29.75-29.75-29.75zm-8.618 38.057c-2.232 0-3.906-1.736-3.906-4.277 0-4.339 4.774-9.608 11.779-12.336l.93 1.798c-5.208 2.976-7.13 6.076-7.44 7.563 1.488.621 2.418 1.984 2.418 3.41.001 2.105-1.611 3.842-3.781 3.842zm16.181-3.844c0 2.107-1.674 3.844-3.844 3.844-2.231 0-3.906-1.736-3.906-4.277 0-4.339 4.773-9.608 11.779-12.336l.931 1.798c-5.208 2.976-7.067 6.076-7.438 7.563 1.546.619 2.478 1.982 2.478 3.408z"/></svg>