<svg xmlns="http://www.w3.org/2000/svg" width="55" height="55" viewBox="2.5 0 55 55" enable-background="new 2.5 0 55 55"><path fill="#EF3C34" d="M44.852 46.592l-11.639-2.91v-28.851l14.262 5.705c.082.033.168.048.25.048.269 0 .521-.16.627-.424.14-.346-.029-.739-.375-.877l-14.764-5.905v-2.581c0-2.047-1.666-3.713-3.713-3.713-1.719 0-3.165 1.178-3.586 2.766l-14.389-5.756c-.343-.138-.738.029-.877.376-.139.346.03.739.376.877l14.763 5.905v32.428l-11.639 2.911c-.3.074-.511.345-.511.654v3.037c0 .372.302.675.675.675h30.375c.373 0 .674-.303.674-.675v-3.037c0-.309-.211-.579-.509-.653zm-15.352-38.159c1.303 0 2.361 1.06 2.361 2.363s-1.06 2.362-2.361 2.362-2.362-1.06-2.362-2.362 1.059-2.363 2.362-2.363zm2.361 5.224v29.876h-1.688v-29.089c.636-.117 1.212-.393 1.688-.787zm-4.723 0c.478.395 1.055.67 1.688.787v29.089h-1.688v-29.876zm16.876 35.95h-29.027v-1.834l11.557-2.892h5.912l11.558 2.892v1.834zm-25.989-29.699l-.004-.02-.027-.132-.035-.131-.005-.019-6.075-12.15-.11-.151c-.123-.134-.297-.222-.493-.222-.197 0-.371.087-.494.222l-.11.151-6.075 12.15-.005.02-.035.129-.028.133-.004.02c0 3.722 3.027 6.75 6.75 6.75 3.722 0 6.75-3.028 6.75-6.75zm-6.075-9.29l4.308 8.616h-4.308v-8.616zm-1.35 0v8.616h-4.308l4.308-8.616zm.675 14.69c-2.749 0-5.025-2.065-5.358-4.725h10.716c-.333 2.66-2.61 4.725-5.358 4.725zm43.196 9.767l-.025-.132-.035-.129-.006-.021-6.074-12.15-.109-.151c-.123-.135-.298-.222-.494-.222-.197 0-.371.087-.494.222l-.109.151-6.075 12.15-.005.021-.035.129-.027.132-.004.021c0 3.723 3.028 6.75 6.75 6.75 3.723 0 6.75-3.027 6.75-6.75l-.008-.021zm-6.071-9.27l4.308 8.615h-4.308v-8.615zm-1.35 0v8.615h-4.308l4.308-8.615zm.675 14.69c-2.748 0-5.023-2.063-5.356-4.724h10.716c-.335 2.661-2.61 4.724-5.36 4.724z"/></svg>