<svg xmlns="http://www.w3.org/2000/svg" width="55" height="55" viewBox="2.5 0 55 55" enable-background="new 2.5 0 55 55"><path fill="#EF3C34" d="M50.5 46.812v-.75c0-5.996-4.879-10.875-10.875-10.875-3.309 0-6-2.691-6-6v-.494c2.031-1.341 3.375-3.643 3.375-6.255v-6.75c0-4.135-3.365-7.5-7.5-7.5s-7.5 3.365-7.5 7.5v6.75c0 2.612 1.344 4.914 3.375 6.257v.492c0 3.31-2.692 6-6 6-5.996 0-10.875 4.879-10.875 10.875v.75h42zm-27-24.374v-6.75c0-3.309 2.691-6 6-6s6 2.691 6 6v6.75c0 3.308-2.691 6-6 6s-6-2.692-6-6zm-4.125 14.25c4.046 0 7.347-3.225 7.487-7.237.822.311 1.709.487 2.638.487s1.816-.178 2.639-.487c.139 4.014 3.439 7.237 7.486 7.237 4.916 0 8.962 3.807 9.346 8.625h-38.941c.383-4.82 4.428-8.625 9.345-8.625z"/></svg>