<svg xmlns="http://www.w3.org/2000/svg" width="55" height="55" viewBox="2.5 0 55 55" enable-background="new 2.5 0 55 55"><path fill="#EF3C34" d="M5.731 26.383h3.526l-6.627 8.838c-.168.225-.196.525-.07.777s.383.41.665.41h35.09c.512 0 .929.415.929.929 0 .512-.417.928-.929.928h-25.064c-1.331 0-2.414 1.083-2.414 2.414 0 1.332 1.082 2.413 2.414 2.413h35.089c.513 0 .929.419.929.93 0 .512-.416.929-.929.929h-11.697c-.409 0-.742.333-.742.743 0 .409.333.742.742.742h11.697c1.33 0 2.413-1.083 2.413-2.414s-1.083-2.415-2.413-2.415h-35.089c-.512 0-.929-.416-.929-.928 0-.514.417-.929.929-.929h25.063c1.33 0 2.414-1.083 2.414-2.413 0-.33-.065-.644-.187-.929h16.169c.411 0 .742-.333.742-.743 0-.214-.092-.408-.237-.544l-7.204-9.605c.473-.974.743-2.063.743-3.218 0-4.095-3.331-7.427-7.426-7.427-2.372 0-4.479 1.121-5.841 2.855l-6.932-9.241c-.138-.184-.353-.294-.583-.298-.222-.013-.448.1-.592.278l-8.678 10.849c-.828-1.19-2.197-1.937-3.691-1.937l-.259.009c-1.067-1.563-2.846-2.516-4.753-2.516-2.922 0-5.342 2.188-5.708 5.014h-.56c-1.792 0-3.249 1.458-3.249 3.249 0 1.792 1.458 3.25 3.249 3.25zm0-5.012h1.253c.412 0 .743-.332.743-.743 0-2.355 1.915-4.271 4.27-4.271 1.54 0 2.968.839 3.724 2.186.154.273.462.416.77.37.194-.033.363-.047.519-.047 1.155 0 2.196.669 2.699 1.69l-3.178 3.973-2.755-2.754c-.152-.153-.354-.231-.577-.216-.215.016-.413.123-.542.296l-2.284 3.044h-4.642c-.973 0-1.764-.791-1.764-1.764.001-.974.792-1.764 1.764-1.764zm16.226-1.246l2.619-3.274 2.26 2.261c.29.289.76.289 1.05 0l2.075-2.075 2.075 2.075c.145.145.333.218.523.218.188 0 .381-.073.526-.218l2.044-2.047 1.514 2.019.505.671.53.709 4.721 6.292-.896 1.197-.466.62-.466.619-4.301 5.732h-31.56l6.405-8.539.557-.743.557-.743 1.101-1.468 1.469 1.468.742.743.524.526c.149.15.359.23.567.216.209-.011.406-.112.539-.277l.371-.464.594-.743 2.809-3.509.52-.652.492-.614zm7.984-9.981l4.29 5.72-1.672 1.671-2.074-2.074c-.29-.29-.76-.29-1.051 0l-2.074 2.074-1.852-1.852 4.433-5.539zm13.386 6.213c3.275 0 5.94 2.666 5.94 5.941 0 .642-.104 1.257-.294 1.837l-1.712-2.281c-.279-.375-.907-.375-1.187 0l-2.748 3.664-4.914-6.553c1.069-1.573 2.875-2.608 4.915-2.608zm7.055 18.566h-12.254l3.981-5.306.504-.674.536-.712.179-.239.464-.619.466-.619 2.412-3.218 1.573 2.096.466.621.463.616 6.04 8.053h-4.83z"/></svg>