<svg xmlns="http://www.w3.org/2000/svg" width="55" height="55" viewBox="2.5 0 55 55" enable-background="new 2.5 0 55 55"><path fill="#EF3C34" d="M50.363 9.398c.414 0 .75-.335.75-.75s-.336-.75-.75-.75h-4.021v-4.023c0-.415-.336-.75-.75-.75-.415 0-.75.335-.75.75v4.462l-.887.886v-2.961c0-.415-.336-.75-.75-.75s-.75.335-.75.75v4.462l-1.654 1.654c-3.141-2.885-7.324-4.65-11.915-4.65-9.719 0-17.625 7.906-17.625 17.625 0 3.788 1.204 7.295 3.244 10.17l-6.526 11.866c-.128.232-.124.516.012.742.135.229.38.369.645.369h2.625v2.625c0 .414.335.75.75.75h3.375c.415 0 .75-.336.75-.75v-2.625h8.625v2.625c0 .414.335.75.75.75h6.75c.414 0 .75-.336.75-.75v-2.625h8.625v2.625c0 .414.335.75.75.75h3.375c.414 0 .75-.336.75-.75v-2.625h2.625c.265 0 .511-.141.646-.369.136-.227.141-.51.012-.742l-6.525-11.865c2.039-2.875 3.244-6.383 3.244-10.169 0-4.59-1.766-8.774-4.65-11.914l1.654-1.654h4.463c.414 0 .75-.336.75-.75 0-.415-.336-.75-.75-.75h-2.963l.885-.887h4.461v-.002zm-35.727 40.977h-1.875v-1.875h1.875v1.875zm16.876 0h-5.25v-1.875h5.25v1.875zm13.5 0h-1.875v-1.875h1.875v1.875zm2.855-3.375h-37.962l5.604-10.189c3.235 3.771 8.03 6.168 13.377 6.168s10.142-2.396 13.378-6.168l5.603 10.189zm-2.855-21.646c0 8.892-7.234 16.125-16.125 16.125-8.892 0-16.125-7.232-16.125-16.125s7.233-16.125 16.124-16.125c4.177 0 7.976 1.609 10.841 4.223l-1.324 1.325c-2.525-2.274-5.857-3.673-9.517-3.673-7.857 0-14.25 6.393-14.25 14.25s6.393 14.25 14.25 14.25c7.858 0 14.25-6.393 14.25-14.25 0-3.659-1.397-6.99-3.674-9.517l1.325-1.325c2.615 2.867 4.225 6.665 4.225 10.842zm-13.5 0c0 1.447-1.178 2.625-2.625 2.625s-2.625-1.178-2.625-2.625c0-1.448 1.178-2.625 2.625-2.625.451 0 .869.125 1.239.325l-1.77 1.77c-.293.293-.293.768 0 1.06.146.147.338.22.53.22s.384-.073.53-.22l1.77-1.769c.201.37.326.788.326 1.239zm-.289-3.396c-.666-.459-1.47-.729-2.335-.729-2.274 0-4.125 1.851-4.125 4.125s1.851 4.125 4.125 4.125 4.125-1.851 4.125-4.125c0-.866-.271-1.671-.729-2.336l1.337-1.337c.79 1.016 1.267 2.288 1.267 3.673 0 3.309-2.691 6-6 6s-6-2.69-6-6 2.691-6 6-6c1.384 0 2.657.476 3.671 1.266l-1.336 1.338zm2.406-2.408c-1.293-1.059-2.945-1.696-4.743-1.696-4.135 0-7.5 3.365-7.5 7.5s3.365 7.5 7.5 7.5c4.136 0 7.5-3.364 7.5-7.5 0-1.798-.638-3.45-1.696-4.743l1.328-1.327c1.396 1.637 2.243 3.755 2.243 6.07 0 5.169-4.206 9.375-9.375 9.375s-9.375-4.205-9.375-9.375c0-5.169 4.206-9.375 9.375-9.375 2.315 0 4.433.849 6.071 2.245l-1.328 1.326zm-4.743-5.071c-5.997 0-10.875 4.878-10.875 10.875 0 5.996 4.878 10.875 10.875 10.875s10.875-4.879 10.875-10.875c0-2.729-1.019-5.219-2.684-7.131l1.323-1.325c2.006 2.252 3.234 5.209 3.234 8.456 0 7.03-5.72 12.75-12.75 12.75s-12.75-5.72-12.75-12.75 5.719-12.75 12.75-12.75c3.247 0 6.203 1.229 8.456 3.233l-1.323 1.325c-1.912-1.666-4.402-2.683-7.131-2.683z"/></svg>