<svg xmlns="http://www.w3.org/2000/svg" width="55" height="55" viewBox="2.5 0 55 55" enable-background="new 2.5 0 55 55"><path fill="#EF3C34" d="M38.995 25.424v4.462c0 .199.079.39.22.53l2.387 2.386c.146.146.338.222.529.222.192 0 .385-.074.531-.222l9.546-9.545c.142-.141.22-.331.22-.53s-.078-.39-.22-.531l-2.386-2.387c-.141-.141-.332-.22-.531-.22h-4.463l-4.553-4.553-4.553-4.554v-4.461c0-.199-.08-.389-.221-.53l-2.389-2.386c-.293-.293-.768-.293-1.061 0l-9.545 9.546c-.293.293-.293.768 0 1.061l2.386 2.386c.141.14.332.22.53.22h4.462l1.636 1.636-28.103 28.108c-.141.141-.22.33-.22.529s.079.391.22.53l4.774 4.772c.146.146.338.221.53.221s.384-.074.53-.221l28.108-28.107 1.636 1.638zm11.622-2.696l-8.486 8.484-1.324-1.325 8.484-8.486 1.326 1.327zm-26.516-9.546l8.484-8.486 1.327 1.326-8.486 8.486-1.325-1.326zm6.628 1.856c-.141-.141-.331-.22-.529-.22h-2.962l6.986-6.986v2.963c0 .199.079.389.221.53l4.771 4.773 4.771 4.772c.142.141.332.22.531.22h2.963l-6.985 6.986v-2.962c0-.2-.079-.39-.22-.53l-2.387-2.387-2.387-2.387-4.773-4.772zm-22.008 35.267l-3.713-3.713 3.713-3.713 3.712 3.714-3.712 3.712zm4.773-4.773l-3.712-3.714 22.803-22.803 3.714 3.712-22.805 22.805zm42.251 2.064c-.038-.09-.093-.173-.162-.242l-3.375-3.375c-.142-.141-.331-.22-.53-.22h-13.5c-.197 0-.39.079-.529.22l-3.375 3.375c-.069.069-.125.152-.162.242-.036.088-.059.187-.059.288v3.374c0 .416.336.751.75.751h20.25c.414 0 .75-.335.75-.751v-3.374c0-.101-.021-.198-.058-.288zm-17.257-2.338h12.879l1.875 1.876h-16.629l1.875-1.876zm15.815 5.25h-18.75v-1.874h18.75v1.874z"/></svg>